<svg width="48" height="48" viewBox="0 0 48 48" fill="none" xmlns="http://www.w3.org/2000/svg">
<rect opacity="0.1" width="48" height="48" rx="8" fill="#FF9301"/>
<mask id="mask0_20461_3509" style="mask-type:alpha" maskUnits="userSpaceOnUse" x="11" y="11" width="26" height="26">
<rect x="11" y="11" width="26" height="26" fill="#D9D9D9"/>
</mask>
<g mask="url(#mask0_20461_3509)">
<path d="M16.0648 33.75C15.5773 33.75 15.1529 33.5695 14.7915 33.2085C14.4305 32.8471 14.25 32.4227 14.25 31.9352V16.0648C14.25 15.5773 14.4305 15.1529 14.7915 14.7915C15.1529 14.4305 15.5773 14.25 16.0648 14.25H31.9352C32.4227 14.25 32.8471 14.4305 33.2085 14.7915C33.5695 15.1529 33.75 15.5773 33.75 16.0648V31.9352C33.75 32.4227 33.5695 32.8471 33.2085 33.2085C32.8471 33.5695 32.4227 33.75 31.9352 33.75H16.0648ZM16.0648 31.9352H31.9352V16.0648H16.0648V31.9352Z" fill="#FF9301"/>
<path d="M25.8911 22.1049C26.5054 22.7292 26.8468 23.5486 26.8468 24.4266C26.8468 25.3045 26.5054 26.124 25.8911 26.7385L23.7359 28.8749C23.102 29.5285 22.2633 29.8504 21.4246 29.8504C20.586 29.8504 19.7473 29.5285 19.1232 28.8749C17.8261 27.6165 17.8261 25.5386 19.1232 24.251L20.4397 22.9243L20.4299 23.5096C20.4202 23.9973 20.4982 24.4851 20.6542 24.9143L20.703 25.0606L20.3129 25.4606C20.0106 25.7533 19.8448 26.1532 19.8448 26.5727C19.8448 26.9922 20.0106 27.3824 20.3129 27.6848C20.9078 28.2896 21.9415 28.2896 22.5364 27.6848L24.6818 25.5484C24.9744 25.246 25.1499 24.846 25.1499 24.4266C25.1499 23.9973 24.9744 23.6169 24.6818 23.3145C24.516 23.1584 24.4283 22.9438 24.4283 22.7097C24.4283 22.4853 24.516 22.2707 24.6818 22.1049C25.0036 21.7829 25.5692 21.7927 25.8911 22.1049ZM29.8504 21.422C29.8504 22.3 29.5091 23.1194 28.8752 23.7437L27.5684 25.0704V24.4851C27.5782 23.9973 27.5002 23.5096 27.3441 23.0804L27.2954 22.9438L27.6854 22.5341C27.9878 22.2414 28.1535 21.8415 28.1535 21.422C28.1535 21.0025 27.9878 20.6123 27.6854 20.3099C27.0906 19.7051 26.0471 19.7149 25.462 20.3099L23.3165 22.456C23.024 22.7487 22.8484 23.1487 22.8484 23.5681C22.8484 23.9973 23.024 24.3778 23.3165 24.6802C23.4823 24.8363 23.5701 25.0509 23.5701 25.285C23.5701 25.5191 23.4823 25.7337 23.3165 25.8898C23.1507 26.0557 22.9362 26.1337 22.7119 26.1337C22.4974 26.1337 22.2731 26.0557 22.1073 25.8898C20.8298 24.6119 20.8298 22.5341 22.1073 21.2562L24.2625 19.1198C25.54 17.8224 27.6172 17.8321 28.8752 19.1198C29.5091 19.7246 29.8504 20.544 29.8504 21.422Z" fill="#FF9301"/>
</g>
</svg>
