<svg width="150" height="60" viewBox="0 0 150 60" fill="none" xmlns="http://www.w3.org/2000/svg">
<g clip-path="url(#clip0_916_15987)">
<g clip-path="url(#clip1_916_15987)">
<path d="M15.6361 46.2722C24.2717 46.2722 31.2722 39.2717 31.2722 30.6361C31.2722 22.0005 24.2717 15 15.6361 15C7.00052 15 0 22.0005 0 30.6361C0 39.2717 7.00052 46.2722 15.6361 46.2722Z" fill="#19B933"/>
<g filter="url(#filter0_d_916_15987)">
<path d="M13.5195 21.9813L7.84021 27.5857C7.79188 27.6333 7.75881 27.6942 7.74522 27.7607C7.73162 27.8271 7.73811 27.8961 7.76386 27.9589C7.78961 28.0216 7.83346 28.0753 7.88982 28.1131C7.94618 28.1508 8.01249 28.171 8.08033 28.1709H10.7273L10.677 38.9721C10.6769 39.0171 10.6856 39.0616 10.7027 39.1032C10.7198 39.1448 10.745 39.1826 10.7768 39.2145C10.8085 39.2464 10.8462 39.2716 10.8878 39.2889C10.9293 39.3061 10.9738 39.315 11.0188 39.315H13.7629C13.8536 39.315 13.9405 39.279 14.0046 39.2149C14.0687 39.1508 14.1047 39.0639 14.1047 38.9732V22.2203C14.1052 22.1524 14.0855 22.0859 14.048 22.0292C14.0106 21.9726 13.9571 21.9284 13.8944 21.9023C13.8318 21.8762 13.7627 21.8693 13.6962 21.8826C13.6296 21.8958 13.5684 21.9286 13.5206 21.9768L13.5195 21.9813Z" fill="white"/>
</g>
<g filter="url(#filter1_d_916_15987)">
<path d="M23.0109 33.0688H20.3639L20.4153 22.2676C20.4156 22.2225 20.407 22.1778 20.3899 22.1361C20.3729 22.0944 20.3478 22.0564 20.316 22.0245C20.2842 21.9925 20.2465 21.9671 20.2049 21.9498C20.1632 21.9325 20.1186 21.9236 20.0736 21.9236H17.3305C17.2399 21.9236 17.153 21.9596 17.0889 22.0237C17.0248 22.0878 16.9888 22.1747 16.9888 22.2653V39.0183C16.9887 39.0858 17.0086 39.1517 17.0459 39.2079C17.0833 39.264 17.1364 39.3079 17.1986 39.3339C17.2608 39.3599 17.3293 39.367 17.3955 39.3541C17.4617 39.3413 17.5227 39.3092 17.5707 39.2618L23.251 33.6574C23.2994 33.6098 23.3324 33.5489 23.346 33.4824C23.3596 33.4159 23.3531 33.3469 23.3274 33.2842C23.3016 33.2214 23.2578 33.1677 23.2014 33.13C23.1451 33.0922 23.0788 33.0721 23.0109 33.0721V33.0688Z" fill="white"/>
</g>
<path d="M45.8141 25.1459C45.8859 25.1822 45.9421 25.2434 45.9722 25.3179C46.0023 25.3924 46.0041 25.4752 45.9775 25.551L45.5154 28.0125C45.497 28.2316 45.3679 28.2928 45.1356 28.2022C44.8462 28.1092 44.5436 28.0633 44.2396 28.0663C44.067 28.0744 43.8951 28.0924 43.7247 28.1202C43.4199 28.1516 43.1246 28.2437 42.8562 28.3908C42.5879 28.538 42.352 28.7373 42.1624 28.977C41.7435 29.5027 41.5257 30.1594 41.5479 30.8301V38.4863C41.5482 38.529 41.54 38.5713 41.5238 38.6108C41.5075 38.6503 41.4835 38.6862 41.4532 38.7164C41.4229 38.7466 41.3868 38.7705 41.3472 38.7867C41.3075 38.8028 41.2651 38.811 41.2222 38.8107H38.7222C38.6794 38.811 38.6368 38.8028 38.5972 38.7867C38.5575 38.7705 38.5215 38.7466 38.4912 38.7164C38.4609 38.6862 38.4368 38.6503 38.4206 38.6108C38.4043 38.5713 38.3962 38.529 38.3965 38.4863V25.3087C38.3962 25.266 38.4043 25.2236 38.4206 25.1841C38.4368 25.1446 38.4609 25.1087 38.4912 25.0786C38.5215 25.0484 38.5575 25.0245 38.5972 25.0083C38.6368 24.9921 38.6794 24.984 38.7222 24.9843H41.2222C41.2651 24.984 41.3075 24.9921 41.3472 25.0083C41.3868 25.0245 41.4229 25.0484 41.4532 25.0786C41.4835 25.1087 41.5075 25.1446 41.5238 25.1841C41.54 25.2236 41.5482 25.266 41.5479 25.3087V26.5584C41.5479 26.6318 41.5614 26.671 41.5897 26.6808C41.618 26.6905 41.6474 26.6673 41.6843 26.6134C41.9277 26.0786 42.3214 25.6254 42.8178 25.3085C43.3142 24.9917 43.8921 24.8246 44.4817 24.8276C44.9462 24.8151 45.4058 24.9249 45.8141 25.1459V25.1459Z" fill="#333C48"/>
<path d="M55.404 25.3499C56.1615 25.7051 56.8053 26.2627 57.2636 26.9607C57.7101 27.6642 57.9403 28.4823 57.9261 29.3144V38.4847C57.9264 38.5274 57.9182 38.5697 57.9019 38.6092C57.8857 38.6487 57.8617 38.6846 57.8314 38.7148C57.8011 38.745 57.7651 38.7688 57.7254 38.785C57.6857 38.8012 57.6432 38.8094 57.6003 38.809H55.1004C55.0575 38.8094 55.015 38.8012 54.9753 38.785C54.9356 38.7688 54.8996 38.745 54.8693 38.7148C54.839 38.6846 54.815 38.6487 54.7988 38.6092C54.7825 38.5697 54.7743 38.5274 54.7746 38.4847V37.8078C54.7746 37.754 54.7562 37.7234 54.7205 37.7136C54.7005 37.71 54.6799 37.7119 54.6609 37.719C54.6419 37.7261 54.6252 37.7382 54.6124 37.754C54.1776 38.1895 53.6547 38.5282 53.0786 38.7474C52.5025 38.9666 51.8862 39.0615 51.2705 39.0257C50.1805 39.0592 49.1117 38.7202 48.242 38.0649C47.8047 37.6765 47.4656 37.1909 47.252 36.6475C47.0385 36.1042 46.9565 35.5183 47.0129 34.9375C46.9654 34.2992 47.0727 33.6589 47.3258 33.0705C47.5788 32.4822 47.9702 31.963 48.467 31.5568C49.6515 30.7531 51.0701 30.3631 52.5008 30.4479H54.6468C54.6652 30.45 54.6839 30.448 54.7015 30.4419C54.719 30.4359 54.7349 30.4259 54.7481 30.4128C54.7612 30.3998 54.7712 30.3839 54.7773 30.3664C54.7834 30.349 54.7854 30.3304 54.7833 30.312V29.6363C54.8141 29.0562 54.6135 28.4873 54.2253 28.0537C54.0202 27.8532 53.7753 27.6978 53.5062 27.5974C53.2371 27.4971 52.9499 27.454 52.6631 27.4711C52.2048 27.452 51.7526 27.5807 51.3738 27.8383C51.0429 28.0746 50.8144 28.4272 50.7346 28.8248C50.7342 28.8686 50.7244 28.9117 50.7058 28.9513C50.6872 28.991 50.6603 29.0262 50.6268 29.0545C50.5933 29.0828 50.5541 29.1036 50.5119 29.1155C50.4696 29.1274 50.4253 29.1302 50.3819 29.1235L47.7196 28.9607C47.4836 28.9252 47.3841 28.8248 47.4197 28.6633C47.4744 28.1055 47.6482 27.5658 47.9292 27.0803C48.2103 26.5948 48.5923 26.1747 49.0495 25.848C50.0999 25.0986 51.3706 24.7179 52.6618 24.766C53.6086 24.7495 54.5467 24.9493 55.404 25.3499V25.3499ZM53.9917 35.8763C54.2434 35.6907 54.4464 35.4474 54.5836 35.1669C54.7207 34.8865 54.7879 34.5773 54.7796 34.2655V32.8604C54.7817 32.842 54.7797 32.8234 54.7736 32.8059C54.7675 32.7885 54.7575 32.7726 54.7444 32.7595C54.7313 32.7465 54.7153 32.7365 54.6978 32.7305C54.6803 32.7244 54.6616 32.7224 54.6431 32.7245H52.7995C52.1311 32.6878 51.4687 32.8677 50.9116 33.2374C50.6823 33.4098 50.4992 33.6358 50.3783 33.8953C50.2574 34.1549 50.2025 34.4401 50.2184 34.7258C50.2016 34.9702 50.2407 35.2153 50.3327 35.4425C50.4246 35.6698 50.5671 35.8733 50.7494 36.0379C51.1458 36.3498 51.6422 36.5081 52.1468 36.4834C52.8131 36.495 53.4634 36.28 53.9905 35.8739L53.9917 35.8763Z" fill="#333C48"/>
<path d="M70.0254 26.0097C70.8148 26.9761 71.2121 28.2019 71.139 29.4455V38.4811C71.1393 38.5238 71.1311 38.5662 71.1149 38.6057C71.0986 38.6452 71.0746 38.681 71.0443 38.7112C71.014 38.7414 70.978 38.7653 70.9383 38.7815C70.8986 38.7977 70.8562 38.8058 70.8133 38.8055H68.317C68.2742 38.8058 68.2316 38.7977 68.192 38.7815C68.1523 38.7653 68.1163 38.7414 68.086 38.7112C68.0557 38.681 68.0316 38.6452 68.0154 38.6057C67.9991 38.5662 67.991 38.5238 67.9913 38.4811V29.8825C68.0259 29.2486 67.8275 28.6238 67.4333 28.1248C67.2432 27.9082 67.0064 27.7372 66.7405 27.6246C66.4747 27.5121 66.1867 27.4609 65.8981 27.4749C65.634 27.4659 65.3708 27.509 65.1236 27.6019C64.8763 27.6947 64.65 27.8354 64.4576 28.0159C64.0638 28.4057 63.8224 28.9226 63.7767 29.4737V38.4811C63.777 38.5238 63.7688 38.5662 63.7525 38.6057C63.7363 38.6452 63.7123 38.681 63.682 38.7112C63.6517 38.7414 63.6157 38.7653 63.576 38.7815C63.5364 38.7977 63.4938 38.8058 63.451 38.8055H60.9424C60.8996 38.8058 60.857 38.7977 60.8174 38.7815C60.7777 38.7653 60.7417 38.7414 60.7114 38.7112C60.6811 38.681 60.657 38.6452 60.6408 38.6057C60.6245 38.5662 60.6164 38.5238 60.6167 38.4811V25.3071C60.6164 25.2645 60.6245 25.2221 60.6408 25.1826C60.657 25.1431 60.6811 25.1073 60.7114 25.0771C60.7417 25.0469 60.7777 25.023 60.8174 25.0068C60.857 24.9906 60.8996 24.9825 60.9424 24.9828H63.4424C63.4853 24.9825 63.5277 24.9906 63.5674 25.0068C63.6071 25.023 63.6431 25.0469 63.6734 25.0771C63.7037 25.1073 63.7277 25.1431 63.744 25.1826C63.7602 25.2221 63.7684 25.2645 63.7681 25.3071V26.0097C63.7652 26.0312 63.7689 26.053 63.7785 26.0724C63.7881 26.0918 63.8033 26.1079 63.8222 26.1187C63.859 26.137 63.8959 26.1187 63.9315 26.0648C64.2959 25.6343 64.7551 25.2932 65.2732 25.068C65.7914 24.8428 66.3548 24.7395 66.9195 24.7661C67.4971 24.734 68.0747 24.8287 68.6115 25.0436C69.1482 25.2585 69.6309 25.5884 70.0254 26.0097Z" fill="#333C48"/>
<path d="M74.0572 38.7123C74.0263 38.6825 74.002 38.6466 73.9857 38.607C73.9695 38.5674 73.9615 38.5249 73.9625 38.4821V20.1942C73.9623 20.1515 73.9706 20.1092 73.9869 20.0697C74.0032 20.0302 74.0272 19.9943 74.0575 19.9641C74.0877 19.9338 74.1238 19.9098 74.1634 19.8935C74.203 19.8771 74.2453 19.8687 74.2882 19.8687H76.7883C76.8312 19.8685 76.8737 19.8768 76.9134 19.8931C76.9531 19.9095 76.989 19.9334 77.0193 19.9637C77.0496 19.994 77.0736 20.03 77.0898 20.0696C77.1061 20.1091 77.1143 20.1515 77.114 20.1942V29.881C77.114 29.9349 77.1324 29.9667 77.168 29.9753C77.1882 29.9794 77.2091 29.9778 77.2285 29.9706C77.2478 29.9635 77.2647 29.9511 77.2774 29.9349L80.945 25.1747C80.9943 25.1146 81.0566 25.0664 81.1273 25.0338C81.198 25.0011 81.2752 24.9849 81.3531 24.9862H84.0964C84.2771 24.9862 84.3681 25.0487 84.3681 25.1747C84.3601 25.2536 84.3317 25.3291 84.2857 25.3938L81.1356 29.5873C81.1176 29.6155 81.1081 29.6482 81.1081 29.6815C81.1081 29.7149 81.1176 29.7476 81.1356 29.7758L84.7748 38.4332C84.7955 38.4849 84.8048 38.5404 84.802 38.596C84.802 38.7429 84.711 38.8114 84.5303 38.8114H81.9234C81.8381 38.8191 81.7528 38.796 81.683 38.7464C81.6133 38.6967 81.5639 38.6238 81.5437 38.5409L79.0732 32.0671C79.0547 32.0133 79.0325 31.9863 79.0055 31.9863C78.9678 31.9913 78.9334 32.0106 78.9096 32.0402L77.1718 34.2312C77.1422 34.2809 77.1237 34.3365 77.1176 34.394V38.4785C77.1179 38.5212 77.1097 38.5635 77.0934 38.603C77.0772 38.6425 77.0532 38.6784 77.0229 38.7086C76.9926 38.7387 76.9567 38.7626 76.917 38.7788C76.8773 38.795 76.8347 38.8032 76.7919 38.8028H74.292C74.2486 38.8049 74.2053 38.798 74.1649 38.7824C74.1244 38.7668 74.0877 38.7429 74.0572 38.7123V38.7123Z" fill="#333C48"/>
<path d="M89.4685 38.5346L86.0996 25.3324V25.226C86.0996 25.0632 86.1991 24.9812 86.3982 24.9812H88.8466C88.8895 24.9773 88.9325 24.982 88.9736 24.9949C89.0146 25.0078 89.0527 25.0287 89.0855 25.0564C89.1183 25.084 89.1453 25.1179 89.1648 25.1561C89.1844 25.1942 89.1961 25.2359 89.1994 25.2786L91.0738 34.2334C91.0922 34.3069 91.1191 34.3424 91.1548 34.3424C91.1904 34.3424 91.2175 34.3069 91.2359 34.2334L93.1644 25.2786C93.1676 25.2359 93.1795 25.1942 93.199 25.1561C93.2186 25.1179 93.2454 25.084 93.2782 25.0564C93.3111 25.0287 93.3492 25.0078 93.3902 24.9949C93.4312 24.982 93.4744 24.9773 93.5173 24.9812H95.7184C95.8047 24.9744 95.8903 25.0018 95.9564 25.0575C96.0225 25.1132 96.0637 25.1927 96.0712 25.2786L98.0563 34.2334C98.0735 34.3069 98.1004 34.3424 98.1385 34.3424C98.1766 34.3424 98.2012 34.3069 98.2197 34.2334L100.148 25.2786C100.151 25.2358 100.163 25.194 100.183 25.1558C100.202 25.1176 100.229 25.0836 100.262 25.0559C100.295 25.0282 100.334 25.0073 100.375 24.9945C100.416 24.9817 100.459 24.9771 100.502 24.9812L102.947 25.0081C103.2 25.0081 103.301 25.1305 103.245 25.3606L99.8495 38.5358C99.829 38.6186 99.7795 38.6914 99.7098 38.741C99.6402 38.7906 99.5549 38.8138 99.4696 38.8063H96.9427C96.8612 38.8107 96.7807 38.7858 96.716 38.7361C96.6513 38.6865 96.6066 38.6154 96.59 38.5358L94.6541 30.4194C94.6356 30.346 94.6085 30.3105 94.5729 30.3105C94.5373 30.3105 94.5091 30.3472 94.4907 30.4194L92.6752 38.5077C92.6718 38.5503 92.66 38.5919 92.6404 38.6299C92.6208 38.668 92.5939 38.7018 92.5611 38.7295C92.5283 38.7571 92.4902 38.7781 92.4493 38.791C92.4084 38.804 92.3653 38.8088 92.3225 38.8051H89.8483C89.7629 38.8128 89.6778 38.7897 89.6081 38.7401C89.5384 38.6904 89.4888 38.6175 89.4685 38.5346Z" fill="#333C48"/>
<path d="M112.642 25.3462C113.4 25.7011 114.045 26.2587 114.503 26.957C114.952 27.6595 115.182 28.4783 115.166 29.3108V38.481C115.166 38.5237 115.158 38.5661 115.141 38.6056C115.125 38.6451 115.101 38.6809 115.071 38.7111C115.041 38.7413 115.005 38.7652 114.965 38.7814C114.925 38.7976 114.883 38.8057 114.84 38.8054H112.335C112.292 38.8056 112.25 38.7973 112.21 38.781C112.171 38.7648 112.135 38.7409 112.104 38.7108C112.074 38.6806 112.05 38.6448 112.034 38.6054C112.017 38.5659 112.009 38.5237 112.009 38.481V37.8042C112.009 37.7503 111.991 37.7197 111.955 37.7099C111.935 37.7061 111.914 37.7079 111.895 37.715C111.876 37.7221 111.859 37.7343 111.846 37.7503C111.411 38.1859 110.888 38.5246 110.312 38.7438C109.736 38.9631 109.12 39.0579 108.504 39.022C107.414 39.0556 106.345 38.7165 105.475 38.0612C105.038 37.6727 104.699 37.1872 104.486 36.6438C104.272 36.1005 104.19 35.5147 104.246 34.9339C104.199 34.2956 104.306 33.6552 104.559 33.0669C104.812 32.4785 105.204 31.9594 105.7 31.5532C106.885 30.7493 108.303 30.3593 109.734 30.4442H111.88C111.899 30.4464 111.917 30.4444 111.935 30.4383C111.952 30.4322 111.968 30.4223 111.981 30.4092C111.995 30.3961 112.005 30.3803 112.011 30.3628C112.017 30.3453 112.019 30.3267 112.017 30.3084V29.6327C112.048 29.0527 111.848 28.4839 111.46 28.0501C111.255 27.8496 111.01 27.6941 110.741 27.5938C110.472 27.4934 110.184 27.4504 109.898 27.4674C109.439 27.4481 108.986 27.5769 108.607 27.8346C108.276 28.0713 108.048 28.4244 107.969 28.8224C107.969 28.8662 107.959 28.9094 107.94 28.949C107.921 28.9886 107.894 29.0238 107.861 29.0521C107.827 29.0804 107.788 29.1012 107.746 29.1131C107.703 29.125 107.659 29.1277 107.615 29.1211L104.95 28.9607C104.715 28.9252 104.615 28.8248 104.652 28.6633C104.707 28.1055 104.88 27.5659 105.161 27.0804C105.443 26.5949 105.824 26.1747 106.282 25.8481C107.332 25.0984 108.603 24.7178 109.894 24.766C110.843 24.7469 111.783 24.9454 112.642 25.3462V25.3462ZM111.23 35.8727C111.482 35.6872 111.685 35.4439 111.822 35.1634C111.959 34.883 112.026 34.5737 112.018 34.2619V32.8567C112.02 32.8384 112.018 32.8197 112.012 32.8023C112.006 32.7848 111.996 32.769 111.983 32.7559C111.97 32.7428 111.954 32.7329 111.936 32.7268C111.919 32.7207 111.9 32.7187 111.881 32.7209H110.038C109.369 32.6842 108.707 32.8641 108.15 33.2337C107.92 33.4063 107.737 33.6324 107.616 33.8922C107.495 34.1519 107.44 34.4374 107.455 34.7233C107.439 34.9677 107.478 35.2126 107.569 35.4398C107.661 35.6671 107.803 35.8707 107.985 36.0355C108.382 36.3474 108.878 36.5056 109.383 36.481C110.05 36.4929 110.701 36.2774 111.229 35.8702L111.23 35.8727Z" fill="#333C48"/>
<path d="M124.224 27.2689C124.194 27.2998 124.158 27.3243 124.118 27.3407C124.079 27.3571 124.036 27.3652 123.993 27.3644H121.793C121.774 27.3623 121.756 27.3643 121.738 27.3703C121.721 27.3763 121.705 27.3861 121.692 27.399C121.679 27.412 121.669 27.4277 121.663 27.445C121.657 27.4623 121.654 27.4808 121.656 27.499V34.2629C121.605 34.7645 121.746 35.2667 122.051 35.6693C122.219 35.8166 122.415 35.9285 122.627 35.9982C122.84 36.0678 123.064 36.0937 123.287 36.0744H123.779C123.822 36.0741 123.864 36.0823 123.904 36.0985C123.944 36.1146 123.98 36.1385 124.01 36.1687C124.04 36.1989 124.064 36.2348 124.081 36.2743C124.097 36.3138 124.105 36.3561 124.105 36.3988V38.4282C124.107 38.4727 124.101 38.5173 124.085 38.5593C124.07 38.6012 124.047 38.6398 124.017 38.6725C123.986 38.7053 123.949 38.7316 123.909 38.75C123.868 38.7684 123.824 38.7784 123.779 38.7795H122.637C121.584 38.852 120.533 38.6072 119.622 38.0769C119.251 37.7495 118.966 37.337 118.79 36.875C118.615 36.4131 118.556 35.9157 118.617 35.4257V27.499C118.619 27.4808 118.616 27.4623 118.61 27.445C118.604 27.4277 118.594 27.412 118.581 27.399C118.568 27.3861 118.552 27.3763 118.535 27.3703C118.517 27.3643 118.499 27.3623 118.48 27.3644H117.23C117.144 27.3644 117.061 27.3301 116.999 27.269C116.938 27.208 116.903 27.1252 116.903 27.0388V25.3081C116.903 25.2653 116.912 25.223 116.928 25.1835C116.944 25.144 116.968 25.1081 116.999 25.0779C117.029 25.0477 117.065 25.0239 117.105 25.0077C117.145 24.9915 117.187 24.9834 117.23 24.9837H118.48C118.499 24.9859 118.517 24.9838 118.535 24.9778C118.553 24.9717 118.568 24.9618 118.582 24.9487C118.595 24.9356 118.605 24.9197 118.611 24.9023C118.617 24.8848 118.619 24.8662 118.617 24.8478V21.7633C118.616 21.7206 118.625 21.6783 118.641 21.6388C118.657 21.5993 118.681 21.5634 118.711 21.5333C118.742 21.5031 118.778 21.4792 118.817 21.463C118.857 21.4468 118.9 21.4386 118.942 21.439H121.333C121.376 21.4386 121.418 21.4468 121.458 21.463C121.498 21.4792 121.534 21.5031 121.564 21.5333C121.594 21.5634 121.618 21.5993 121.635 21.6388C121.651 21.6783 121.659 21.7206 121.659 21.7633V24.8478C121.657 24.8662 121.659 24.8848 121.665 24.9023C121.671 24.9197 121.681 24.9356 121.694 24.9487C121.707 24.9618 121.723 24.9717 121.74 24.9778C121.758 24.9838 121.777 24.9859 121.795 24.9837H123.999C124.042 24.9835 124.084 24.9918 124.124 25.008C124.164 25.0243 124.2 25.0481 124.23 25.0783C124.26 25.1084 124.285 25.1442 124.301 25.1836C124.317 25.2231 124.326 25.2654 124.326 25.3081V27.0388C124.326 27.0821 124.317 27.1249 124.299 27.1645C124.282 27.2041 124.256 27.2397 124.224 27.2689V27.2689Z" fill="#333C48"/>
<path d="M128.141 37.9001C127.198 37.133 126.589 36.0326 126.442 34.8291C126.275 33.8463 126.202 32.8501 126.222 31.8535C126.21 30.8662 126.284 29.8797 126.442 28.9049C126.6 27.7173 127.213 26.6365 128.153 25.8889C129.181 25.1111 130.449 24.7142 131.739 24.7665C133.002 24.726 134.243 25.1016 135.269 25.8351C136.2 26.5027 136.828 27.5107 137.013 28.6381C137.031 28.7115 137.049 28.7996 137.068 28.9086C137.087 29.0427 137.096 29.1782 137.095 29.3137V29.3676C137.095 29.5308 136.995 29.6299 136.796 29.665L134.324 29.9098H134.27C134.106 29.9098 134.007 29.8107 133.971 29.6124C133.97 29.4756 133.952 29.3396 133.917 29.2072C133.831 28.7253 133.576 28.2893 133.198 27.9759C132.785 27.6347 132.26 27.4566 131.723 27.4753C131.18 27.4576 130.651 27.6516 130.249 28.0163C129.847 28.3952 129.592 28.9025 129.528 29.4496C129.43 30.2573 129.384 31.0705 129.392 31.8841C129.378 32.7171 129.433 33.5497 129.555 34.3738C129.618 34.9143 129.867 35.4163 130.261 35.7936C130.664 36.155 131.194 36.3444 131.736 36.3212C132.287 36.3436 132.827 36.1548 133.243 35.7936C133.621 35.4624 133.867 35.0059 133.935 34.5084L133.962 34.2379C133.98 34.1481 134.028 34.0671 134.098 34.0078C134.13 33.9774 134.17 33.9554 134.212 33.9436C134.255 33.9319 134.301 33.9308 134.344 33.9405L136.789 34.1559C136.833 34.157 136.877 34.167 136.918 34.1854C136.959 34.2037 136.996 34.2301 137.026 34.2628C137.057 34.2955 137.081 34.334 137.096 34.376C137.111 34.418 137.118 34.4626 137.116 34.5072L137.061 34.9674C136.996 35.5471 136.813 36.1075 136.524 36.6144C136.234 37.1214 135.844 37.5643 135.376 37.9161C134.333 38.6814 133.059 39.0722 131.764 39.025C130.461 39.0831 129.179 38.6851 128.141 37.9001V37.9001Z" fill="#333C48"/>
<path d="M148.878 26.0095C149.668 26.9758 150.065 28.2016 149.992 29.4453V38.4809C149.992 38.5236 149.984 38.5659 149.967 38.6054C149.951 38.6449 149.927 38.6808 149.897 38.711C149.867 38.7412 149.831 38.7651 149.791 38.7812C149.751 38.7974 149.709 38.8056 149.666 38.8053H147.166C147.123 38.8056 147.08 38.7974 147.041 38.7812C147.001 38.7651 146.965 38.7412 146.935 38.711C146.905 38.6808 146.881 38.6449 146.864 38.6054C146.848 38.5659 146.84 38.5236 146.84 38.4809V29.881C146.875 29.2472 146.677 28.6225 146.283 28.1234C146.093 27.9067 145.857 27.7357 145.591 27.6232C145.325 27.5106 145.037 27.4594 144.748 27.4734C144.484 27.4647 144.221 27.508 143.974 27.6009C143.727 27.6937 143.501 27.8343 143.309 28.0144C142.914 28.4049 142.674 28.9235 142.631 29.4759V38.4834C142.631 38.5262 142.623 38.5687 142.607 38.6083C142.59 38.6478 142.566 38.6836 142.535 38.7135C142.505 38.7442 142.469 38.7684 142.429 38.7846C142.389 38.8008 142.347 38.8087 142.304 38.8077H139.81C139.767 38.8079 139.724 38.7996 139.685 38.7834C139.645 38.7672 139.609 38.7433 139.579 38.7132C139.548 38.683 139.524 38.6472 139.508 38.6078C139.491 38.5683 139.483 38.5261 139.483 38.4834V20.1942C139.483 20.1079 139.517 20.0251 139.579 19.964C139.64 19.903 139.723 19.8687 139.81 19.8687H142.31C142.396 19.8687 142.48 19.903 142.541 19.964C142.602 20.0251 142.637 20.1079 142.637 20.1942V26.0107C142.634 26.0322 142.637 26.054 142.647 26.0734C142.657 26.0928 142.672 26.1089 142.691 26.1197C142.728 26.138 142.765 26.1197 142.8 26.0658C143.165 25.6353 143.624 25.2942 144.142 25.069C144.66 24.8438 145.223 24.7405 145.788 24.7671C146.363 24.7364 146.938 24.8317 147.472 25.0463C148.006 25.261 148.486 25.5898 148.878 26.0095V26.0095Z" fill="#333C48"/>
</g>
</g>
<defs>
<filter id="filter0_d_916_15987" x="5.13226" y="20.573" width="11.5782" height="22.651" filterUnits="userSpaceOnUse" color-interpolation-filters="sRGB">
<feFlood flood-opacity="0" result="BackgroundImageFix"/>
<feColorMatrix in="SourceAlpha" type="matrix" values="0 0 0 0 0 0 0 0 0 0 0 0 0 0 0 0 0 0 127 0" result="hardAlpha"/>
<feOffset dy="1.30301"/>
<feGaussianBlur stdDeviation="1.30301"/>
<feColorMatrix type="matrix" values="0 0 0 0 0 0 0 0 0 0 0 0 0 0 0 0 0 0 0.161 0"/>
<feBlend mode="normal" in2="BackgroundImageFix" result="effect1_dropShadow_916_15987"/>
<feBlend mode="normal" in="SourceGraphic" in2="effect1_dropShadow_916_15987" result="shape"/>
</filter>
<filter id="filter1_d_916_15987" x="14.3828" y="20.6206" width="11.5763" height="22.6488" filterUnits="userSpaceOnUse" color-interpolation-filters="sRGB">
<feFlood flood-opacity="0" result="BackgroundImageFix"/>
<feColorMatrix in="SourceAlpha" type="matrix" values="0 0 0 0 0 0 0 0 0 0 0 0 0 0 0 0 0 0 127 0" result="hardAlpha"/>
<feOffset dy="1.30301"/>
<feGaussianBlur stdDeviation="1.30301"/>
<feColorMatrix type="matrix" values="0 0 0 0 0 0 0 0 0 0 0 0 0 0 0 0 0 0 0.161 0"/>
<feBlend mode="normal" in2="BackgroundImageFix" result="effect1_dropShadow_916_15987"/>
<feBlend mode="normal" in="SourceGraphic" in2="effect1_dropShadow_916_15987" result="shape"/>
</filter>
<clipPath id="clip0_916_15987">
<rect width="150" height="60" fill="white"/>
</clipPath>
<clipPath id="clip1_916_15987">
<rect width="150" height="54.6358" fill="white" transform="translate(0 3)"/>
</clipPath>
</defs>
</svg>
