<svg width="48" height="48" viewBox="0 0 48 48" fill="none" xmlns="http://www.w3.org/2000/svg">
<rect opacity="0.1" width="48" height="48" rx="8" fill="#00C7DA"/>
<mask id="mask0_20461_3489" style="mask-type:alpha" maskUnits="userSpaceOnUse" x="11" y="11" width="26" height="26">
<rect x="11" y="11" width="26" height="26" fill="#D9D9D9"/>
</mask>
<g mask="url(#mask0_20461_3489)">
<path d="M15.3327 22.9167V31.5833H19.666V22.9167H15.3327ZM21.8327 16.4167V31.5833H26.166V16.4167H21.8327ZM28.3327 25.0833V31.5833H32.666V25.0833H28.3327ZM32.666 33.75H15.3327C14.7368 33.75 14.227 33.538 13.803 33.1141C13.3783 32.6894 13.166 32.1792 13.166 31.5833V22.9167C13.166 22.3208 13.3783 21.8106 13.803 21.3859C14.227 20.962 14.7368 20.75 15.3327 20.75H19.666V16.4167C19.666 15.8208 19.8783 15.3106 20.303 14.8859C20.727 14.462 21.2368 14.25 21.8327 14.25H26.166C26.7618 14.25 27.2721 14.462 27.6968 14.8859C28.1207 15.3106 28.3327 15.8208 28.3327 16.4167V22.9167H32.666C33.2619 22.9167 33.7721 23.1286 34.1968 23.5526C34.6207 23.9773 34.8327 24.4875 34.8327 25.0833V31.5833C34.8327 32.1792 34.6207 32.6894 34.1968 33.1141C33.7721 33.538 33.2619 33.75 32.666 33.75Z" fill="#00C7DA"/>
</g>
</svg>
