<svg width="48" height="48" viewBox="0 0 48 48" fill="none" xmlns="http://www.w3.org/2000/svg">
<rect opacity="0.1" width="48" height="48" rx="8" fill="#6F57E9"/>
<mask id="mask0_20461_3499" style="mask-type:alpha" maskUnits="userSpaceOnUse" x="11" y="11" width="26" height="26">
<rect x="11" y="11" width="26" height="26" fill="#D9D9D9"/>
</mask>
<g mask="url(#mask0_20461_3499)">
<path d="M27.1694 26.7354C27.3319 26.8979 27.5262 26.9748 27.7522 26.9662C27.9776 26.9568 28.1715 26.8708 28.334 26.7083C28.4965 26.5458 28.5777 26.3516 28.5777 26.1255C28.5777 25.9002 28.4965 25.7063 28.334 25.5438L26.6548 23.8917C26.8534 23.5847 27.0026 23.2597 27.1022 22.9167C27.2012 22.5736 27.2507 22.2125 27.2507 21.8333C27.2507 20.7681 26.8762 19.8696 26.1272 19.138C25.3776 18.4071 24.4881 18.0417 23.459 18.0417C22.4298 18.0417 21.5408 18.4071 20.7918 19.138C20.0422 19.8696 19.6673 20.7681 19.6673 21.8333C19.6673 22.8986 20.0422 23.7971 20.7918 24.5287C21.5408 25.2596 22.4298 25.625 23.459 25.625C23.8382 25.625 24.1949 25.5842 24.5293 25.5026C24.863 25.4217 25.1923 25.2819 25.5173 25.0833L27.1694 26.7354ZM23.459 24C22.8632 24 22.3533 23.7877 21.9293 23.363C21.5047 22.9391 21.2923 22.4292 21.2923 21.8333C21.2923 21.2375 21.5047 20.7273 21.9293 20.3026C22.3533 19.8786 22.8632 19.6667 23.459 19.6667C24.0368 19.6667 24.5423 19.8786 24.9756 20.3026C25.409 20.7273 25.6257 21.2375 25.6257 21.8333C25.6257 22.4292 25.4137 22.9391 24.9897 23.363C24.5651 23.7877 24.0548 24 23.459 24ZM15.334 30.5C14.7382 30.5 14.2283 30.288 13.8043 29.8641C13.3797 29.4394 13.1673 28.9292 13.1673 28.3333V16.4167C13.1673 15.8208 13.3797 15.3106 13.8043 14.8859C14.2283 14.462 14.7382 14.25 15.334 14.25H32.6673C33.2631 14.25 33.7734 14.462 34.1981 14.8859C34.622 15.3106 34.834 15.8208 34.834 16.4167V28.3333C34.834 28.9292 34.622 29.4394 34.1981 29.8641C33.7734 30.288 33.2631 30.5 32.6673 30.5H15.334ZM15.334 28.3333H32.6673V16.4167H15.334V28.3333ZM13.1673 33.75C12.8604 33.75 12.6033 33.646 12.396 33.438C12.188 33.2307 12.084 32.9736 12.084 32.6667C12.084 32.3597 12.188 32.1026 12.396 31.8953C12.6033 31.6873 12.8604 31.5833 13.1673 31.5833H34.834C35.1409 31.5833 35.398 31.6873 35.6053 31.8953C35.8133 32.1026 35.9173 32.3597 35.9173 32.6667C35.9173 32.9736 35.8133 33.2307 35.6053 33.438C35.398 33.646 35.1409 33.75 34.834 33.75H13.1673Z" fill="#6F57E9"/>
</g>
</svg>
