<svg width="48" height="48" viewBox="0 0 48 48" fill="none" xmlns="http://www.w3.org/2000/svg">
<rect opacity="0.1" width="48" height="48" rx="8" fill="#19B933"/>
<mask id="mask0_20461_3520" style="mask-type:alpha" maskUnits="userSpaceOnUse" x="11" y="11" width="26" height="26">
<rect x="11" y="11" width="26" height="26" fill="#D9D9D9"/>
</mask>
<g mask="url(#mask0_20461_3520)">
<path d="M33.6153 35.131L30.9882 32.531C30.6271 32.7838 30.2252 32.9733 29.7825 33.0997C29.3405 33.2261 28.8847 33.2893 28.4153 33.2893C27.0611 33.2893 25.9103 32.8152 24.9627 31.8669C24.0144 30.9193 23.5403 29.7685 23.5403 28.4143C23.5403 27.0601 24.0144 25.9089 24.9627 24.9606C25.9103 24.0131 27.0611 23.5393 28.4153 23.5393C29.7695 23.5393 30.9207 24.0131 31.869 24.9606C32.8165 25.9089 33.2903 27.0601 33.2903 28.4143C33.2903 28.8838 33.2271 29.3395 33.1007 29.7815C32.9743 30.2242 32.7847 30.6351 32.532 31.0143L35.132 33.6143C35.3486 33.831 35.4616 34.0837 35.471 34.3726C35.4797 34.6615 35.3757 34.9143 35.159 35.131C34.9424 35.3476 34.6849 35.456 34.3866 35.456C34.0891 35.456 33.832 35.3476 33.6153 35.131ZM28.4153 31.1226C29.1736 31.1226 29.8146 30.8608 30.3382 30.3372C30.8618 29.8136 31.1236 29.1726 31.1236 28.4143C31.1236 27.656 30.8618 27.015 30.3382 26.4914C29.8146 25.9678 29.1736 25.706 28.4153 25.706C27.657 25.706 27.016 25.9678 26.4924 26.4914C25.9688 27.015 25.707 27.656 25.707 28.4143C25.707 29.1726 25.9688 29.8136 26.4924 30.3372C27.016 30.8608 27.657 31.1226 28.4153 31.1226ZM12.8965 30.0122C12.6618 29.8497 12.5221 29.6287 12.4773 29.3492C12.4318 29.069 12.4813 28.8025 12.6257 28.5497L16.7153 21.9956C16.9139 21.6886 17.1894 21.5218 17.5419 21.4951C17.8936 21.4676 18.1958 21.5893 18.4486 21.8601L20.7507 24.5414L24.1903 18.9351C24.3889 18.5921 24.6915 18.4206 25.0981 18.4206C25.504 18.4206 25.8153 18.5831 26.032 18.9081L28.0361 21.9143C27.6208 21.9324 27.228 21.9818 26.8575 22.0627C26.4877 22.1443 26.1222 22.2574 25.7611 22.4018L25.1653 21.5081L21.834 26.9247C21.6354 27.2317 21.3556 27.4032 20.9945 27.4393C20.6333 27.4754 20.3264 27.349 20.0736 27.0601L17.7715 24.3789L14.4674 29.7143C14.3049 29.9851 14.0658 30.152 13.7502 30.2148C13.4339 30.2784 13.1493 30.2108 12.8965 30.0122ZM30.8257 22.456C30.4826 22.3115 30.1259 22.1942 29.7554 22.1039C29.3856 22.0136 29.0021 21.9594 28.6049 21.9414L33.534 14.1414C33.6965 13.8886 33.9313 13.7261 34.2382 13.6539C34.5452 13.5817 34.825 13.6449 35.0778 13.8435C35.3125 14.006 35.457 14.227 35.5111 14.5065C35.5653 14.7867 35.5201 15.0532 35.3757 15.306L30.8257 22.456Z" fill="#19B933"/>
</g>
</svg>
