<svg width="144" height="34" viewBox="0 0 144 34" fill="none" xmlns="http://www.w3.org/2000/svg">
<g clip-path="url(#clip0_5472_334)">
<path d="M143.108 22.7756C143.033 23.8293 142.951 24.883 142.869 26.0787C141.629 26.0787 140.373 26.0936 139.118 26.0563C138.998 26.0563 138.819 25.7275 138.796 25.5332C138.744 25.152 138.781 24.756 138.781 24.203C138.318 24.599 137.974 24.9353 137.601 25.2118C134.918 27.1996 130.718 27.1847 127.669 25.0848C124.157 22.671 123.095 19.1662 123.656 15.198C124.179 11.4764 126.219 8.67404 129.956 7.53814C133.139 6.56665 136.226 6.83568 138.819 9.78005C138.819 9.05517 138.766 8.59184 138.841 8.15093C138.878 7.93421 139.148 7.58298 139.319 7.57551C140.485 7.5232 141.658 7.55309 142.892 7.55309C142.974 9.1299 143.048 10.6394 143.123 12.149V22.7756H143.108ZM127.826 16.7748C127.781 20.1078 130.158 22.7308 133.281 22.7756C136.435 22.8205 138.923 20.3095 138.991 17.0065C139.058 13.6735 136.652 11.0505 133.446 10.9832C130.292 10.9159 127.871 13.4045 127.818 16.7673" fill="#F4F4F4"/>
<path d="M46.5195 7.50805H50.5474V9.51829C50.7193 9.50334 50.8015 9.51829 50.8314 9.4884C53.4843 6.59634 56.7799 6.50667 60.1129 7.79202C63.6925 9.17453 65.4486 12.0741 65.7924 15.8031C66.0764 18.8596 65.3664 21.6096 63.1843 23.9038C60.7182 26.497 56.496 27.4535 53.29 26.0187C52.341 25.5927 51.5264 24.8679 50.5773 24.2327V27.2667C50.5773 29.2545 50.5624 31.2349 50.5848 33.2152C50.5848 33.7981 50.4204 34.0298 49.7927 33.9999C48.7166 33.9476 47.6404 33.9849 46.512 33.9849V7.50805H46.5195ZM61.5477 17.477C61.6075 13.8078 59.6346 11.3791 56.7127 11.0353C52.5652 10.5421 49.5461 14.3683 50.6595 18.5905C51.5787 22.058 55.3675 23.6572 58.3194 22.2224C60.5165 21.1538 61.4954 19.3378 61.5552 17.477" fill="#F4F4F4"/>
<path d="M36.0274 9.62298V7.53054H40.1899V9.13723C40.1899 14.5103 40.1749 19.8834 40.2123 25.2565C40.2123 25.9665 40.0105 26.1533 39.323 26.1159C38.2768 26.0636 37.2306 26.101 36.0722 26.101V24.3897C35.1007 24.98 34.2563 25.6675 33.2848 26.0561C28.0686 28.1486 22.1425 24.8605 21.0291 19.2482C20.2743 15.4519 21.0515 12.0442 24.0033 9.27922C26.8206 6.64872 32.5226 6.28254 35.1082 8.77106C35.3474 9.00272 35.6014 9.21944 36.0274 9.61551M25.1243 16.7747C25.0944 19.8909 27.1868 22.4093 30.1088 22.7531C32.7617 23.0669 35.4221 21.1239 36.0423 18.4187C36.7747 15.2502 35.31 12.2834 32.53 11.3119C28.7786 9.99663 25.1616 12.6645 25.1243 16.7821" fill="#F4F4F4"/>
<path d="M118.679 7.54543C118.701 7.59774 118.769 7.67994 118.761 7.76962C118.716 11.7976 118.828 15.833 118.552 19.8385C118.298 23.5825 115.241 26.2952 111.43 26.6091C109.241 26.7884 107.103 26.6464 105.138 25.518C102.537 24.0234 101.371 21.6993 101.304 18.8371C101.222 15.3024 101.282 11.7602 101.259 8.218C101.259 7.69489 101.454 7.52301 101.969 7.53795C103.053 7.56037 104.136 7.53795 105.347 7.53795C105.37 7.83687 105.407 8.18063 105.414 8.53186C105.467 11.9171 105.452 15.3099 105.586 18.6877C105.676 20.9371 106.842 22.1626 109.001 22.6559C110.877 23.0818 112.984 22.327 113.807 20.7278C114.21 19.9432 114.404 18.9866 114.427 18.1048C114.502 14.869 114.487 11.6332 114.449 8.40482C114.442 7.70236 114.629 7.50059 115.331 7.53795C116.437 7.59026 117.551 7.5529 118.686 7.5529" fill="#F4F4F4"/>
<path d="M97.0595 10.1012C96.103 11.0951 95.2361 11.9919 94.3842 12.8811C93.8461 12.5224 93.3753 12.1712 92.8821 11.8798C89.1307 9.69764 84.8262 11.8798 84.4002 16.1618C84.0789 19.3528 86.0219 22.1253 89.0634 22.6708C90.842 22.9847 92.4188 22.3196 93.7938 21.2435C94.302 20.8474 94.5635 20.8175 94.9671 21.363C95.4229 21.9758 95.9759 22.5213 96.5289 23.0519C96.9997 23.5003 96.9624 23.8366 96.4841 24.2476C95.3258 25.249 94.0554 26.0486 92.5309 26.3625C89.2278 27.035 86.0742 26.7137 83.4287 24.4643C80.3424 21.8413 79.5278 18.4037 80.2826 14.585C81.9416 6.26753 91.5818 5.58749 95.7667 8.9055C96.1927 9.24926 96.5738 9.65281 97.052 10.1012" fill="#F4F4F4"/>
<path d="M17.0385 10.1012C16.0819 11.0951 15.2151 11.9919 14.3631 12.8811C13.8251 12.5224 13.3543 12.1712 12.8611 11.8798C9.10962 9.69764 4.80516 11.8798 4.3792 16.1618C4.05786 19.3528 6.00084 22.1253 9.04236 22.6708C10.8209 22.9847 12.3977 22.3196 13.7728 21.2435C14.2809 20.8474 14.5425 20.8175 14.946 21.363C15.4019 21.9758 15.9549 22.5213 16.5079 23.0519C16.9787 23.5003 16.9413 23.8366 16.4631 24.2476C15.3047 25.249 14.0343 26.0486 12.5098 26.3625C9.20676 27.035 6.05315 26.7137 3.40771 24.4643C0.328824 21.8413 -0.493207 18.3962 0.261567 14.585C1.92058 6.26753 11.5682 5.58749 15.7457 8.9055C16.1716 9.24926 16.5527 9.65281 17.031 10.1012" fill="#F4F4F4"/>
<path d="M71.031 26.116V7.57544C72.2192 7.57544 73.3551 7.58291 74.491 7.57544C75.0515 7.57544 75.0365 7.9192 75.0365 8.31527C75.0291 10.176 75.0365 12.0368 75.0365 13.8976C75.0365 17.6491 75.0216 21.4005 75.059 25.152C75.0664 25.9217 74.8348 26.1758 74.065 26.1309C73.0786 26.0711 72.0922 26.116 71.031 26.116Z" fill="#F4F4F4"/>
</g>
<defs>
<clipPath id="clip0_5472_334">
<rect width="143.108" height="34" fill="white"/>
</clipPath>
</defs>
</svg>
