<?xml version="1.0" standalone="no"?>
<!DOCTYPE svg PUBLIC "-//W3C//DTD SVG 20010904//EN"
 "http://www.w3.org/TR/2001/REC-SVG-20010904/DTD/svg10.dtd">
<svg version="1.0" xmlns="http://www.w3.org/2000/svg"
 width="512.000000pt" height="512.000000pt" viewBox="0 0 512.000000 512.000000"
 preserveAspectRatio="xMidYMid meet">
<metadata>
Created by potrace 1.16, written by Peter Selinger 2001-2019
</metadata>
<g transform="translate(0.000000,512.000000) scale(0.100000,-0.100000)"
fill="#000000" stroke="none">
<path d="M2250 4611 c-66 -5 -95 -12 -130 -32 -25 -15 -65 -30 -88 -34 -28 -4
-40 -11 -34 -17 5 -5 2 -23 -9 -46 -16 -32 -17 -48 -9 -127 5 -49 18 -121 28
-159 11 -38 17 -77 15 -87 -10 -38 -51 -60 -168 -89 -64 -17 -136 -38 -159
-49 -39 -17 -48 -17 -146 -4 -58 8 -166 15 -240 16 -148 2 -171 -5 -207 -59
-37 -57 -1 -410 101 -989 30 -170 66 -386 80 -478 14 -93 33 -196 42 -230 31
-120 89 -203 177 -249 40 -22 55 -23 290 -26 203 -3 249 -6 254 -18 4 -11 27
-14 98 -14 84 0 93 -2 98 -20 3 -11 12 -20 21 -20 12 0 16 -17 18 -93 3 -89 4
-92 26 -90 21 3 22 -1 22 -61 0 -63 0 -64 -30 -69 l-30 -6 0 -109 0 -109 -117
-31 c-65 -17 -206 -52 -313 -77 -107 -26 -212 -51 -232 -56 -47 -12 -60 -35
-57 -107 1 -32 -3 -67 -9 -79 -18 -33 -14 -84 8 -121 l20 -32 -36 0 c-21 0
-33 -4 -29 -10 7 -11 243 -12 290 -1 29 7 28 8 -17 15 l-47 8 14 29 c28 53 11
143 -31 167 -11 6 15 20 98 51 164 63 283 114 271 118 -5 2 -88 -24 -184 -58
-96 -33 -185 -63 -199 -67 -14 -3 -27 -8 -30 -12 -3 -4 -22 -15 -42 -23 l-38
-16 0 49 c0 57 -33 43 265 114 105 25 240 59 300 76 124 33 165 37 165 15 0
-21 -28 -37 -191 -110 -81 -37 -154 -76 -166 -91 -29 -32 -31 -96 -3 -141 l20
-33 -28 0 c-21 0 -24 -2 -12 -10 17 -11 171 -11 215 0 l30 8 -33 1 c-32 1 -33
2 -18 23 25 36 21 110 -9 142 -13 14 -29 26 -35 26 -31 0 0 22 73 53 131 54
127 54 127 14 0 -19 3 -55 6 -81 l7 -47 56 3 56 3 5 40 5 40 53 -77 c28 -42
52 -86 52 -98 0 -11 6 -23 13 -26 16 -6 12 -101 -4 -119 -5 -5 -9 -30 -9 -56
0 -54 -5 -50 145 -96 79 -24 107 -27 235 -27 124 -1 150 2 173 17 56 36 21 92
-83 132 -38 15 -80 35 -92 46 -23 19 -23 19 57 15 44 -3 127 -10 185 -16 59
-6 218 -10 365 -8 236 3 264 5 300 23 34 17 40 24 38 50 -3 46 -39 70 -137 89
-121 24 -155 38 -270 108 -114 69 -142 92 -149 118 -4 15 3 20 42 25 l47 6 12
102 c7 56 30 201 53 322 83 447 93 548 68 638 -15 56 -101 140 -165 163 -46
16 -54 23 -72 65 -17 41 -18 49 -5 53 8 3 125 6 259 6 l244 0 0 30 0 30 -162
2 c-146 3 -160 4 -131 16 54 23 121 130 109 176 -5 19 18 52 125 187 72 90
146 181 165 203 36 42 43 73 19 82 -8 4 -15 13 -15 21 0 10 -6 14 -17 10 -10
-2 -130 -36 -267 -73 l-248 -69 -44 -57 -44 -57 -88 6 c-97 6 -317 54 -374 81
-27 12 -39 25 -44 46 -3 16 -32 88 -64 160 -37 82 -63 158 -70 201 -16 94 -39
183 -55 215 -20 39 -71 85 -115 105 l-39 18 23 18 c20 16 24 30 28 93 3 42 10
82 17 90 9 11 10 24 2 52 -8 28 -7 43 5 65 13 26 13 37 -4 110 -17 68 -17 81
-5 86 7 3 21 19 29 35 20 39 11 88 -22 119 -28 27 -92 32 -244 20z m3 -28 c-7
-2 -19 -2 -25 0 -7 3 -2 5 12 5 14 0 19 -2 13 -5z m80 0 c-7 -2 -21 -2 -30 0
-10 3 -4 5 12 5 17 0 24 -2 18 -5z m115 -30 c13 -21 12 -25 -18 -53 -18 -16
-37 -30 -44 -30 -6 1 4 13 22 29 68 58 21 66 -113 17 -49 -17 -99 -26 -165
-30 -82 -4 -88 -4 -40 5 30 5 83 13 117 18 34 5 88 23 120 39 67 35 100 36
121 5z m-268 -114 c13 -7 13 -8 0 -13 -23 -8 -160 -12 -160 -5 0 4 17 14 38
22 36 16 89 14 122 -4z m252 -16 c33 -37 50 -143 23 -143 -26 0 -27 -24 -5
-79 28 -71 27 -75 -20 -68 -22 3 -43 1 -46 -4 -3 -5 2 -9 11 -9 25 0 9 -17
-23 -23 -16 -3 -43 -18 -60 -32 -29 -24 -52 -27 -52 -6 0 5 -18 27 -40 49 -36
36 -40 45 -40 90 0 43 5 56 35 92 23 28 34 49 30 61 -3 11 -8 28 -11 39 -11
39 12 50 101 50 65 0 85 -4 97 -17z m-316 -170 c-3 -3 1 -12 9 -20 9 -9 15
-34 15 -67 0 -82 22 -141 75 -197 26 -28 45 -53 42 -56 -8 -8 -108 69 -154
120 -42 46 -54 79 -32 93 6 3 15 0 20 -7 18 -29 9 16 -11 56 -33 64 -20 117
22 94 11 -6 17 -13 14 -16z m324 -192 c0 -5 -15 -12 -32 -15 -30 -6 -31 -8
-15 -20 9 -7 17 -18 17 -25 0 -13 -49 -15 -69 -2 -21 13 -4 50 27 57 15 3 32
7 37 9 19 7 35 5 35 -4z m-327 -73 c40 -35 92 -79 116 -100 l45 -36 -19 -41
c-10 -23 -22 -40 -26 -39 -23 9 -212 278 -195 278 4 0 39 -28 79 -62z m-29
-105 c14 -40 21 -75 17 -77 -4 -3 -25 6 -48 19 -40 24 -41 26 -53 105 -7 43
-9 87 -6 97 10 25 60 -54 90 -144z m-97 40 c9 -74 15 -90 34 -103 13 -8 32
-22 43 -32 20 -16 20 -17 2 -36 -21 -24 -23 -19 61 -131 35 -46 89 -130 120
-185 30 -56 84 -151 119 -212 54 -94 64 -119 64 -158 0 -40 -3 -47 -17 -42
-175 49 -311 94 -364 122 l-67 35 4 147 c1 81 6 172 9 203 8 62 -10 139 -50
219 -37 73 -143 161 -192 160 -11 -1 -4 -9 20 -21 56 -29 110 -88 143 -154 23
-49 28 -73 31 -149 2 -85 1 -87 -8 -37 -13 73 -60 158 -121 217 l-50 49 45
-65 c44 -65 87 -163 87 -201 0 -20 0 -20 -27 -1 -54 37 -58 36 -22 -6 38 -44
49 -81 49 -162 l0 -45 -24 50 c-13 28 -42 70 -65 95 l-41 45 34 -65 c34 -63
86 -191 86 -210 0 -6 -8 -10 -17 -10 -10 0 -36 -9 -58 -19 l-40 -18 63 5 c42
3 62 1 62 -7 0 -6 -13 -11 -30 -11 -45 0 -129 -51 -151 -92 -6 -11 10 -5 48
18 53 32 118 53 129 41 3 -2 -10 -14 -28 -25 -18 -11 -49 -37 -68 -58 -30 -31
-31 -35 -10 -24 14 7 43 27 65 45 22 17 45 35 52 38 6 4 85 -17 175 -47 90
-30 200 -64 245 -76 l81 -22 -19 -65 c-10 -36 -21 -92 -25 -124 -5 -46 -10
-59 -23 -58 -10 0 -11 2 -3 6 23 9 12 38 -20 51 -26 10 -33 9 -43 -5 -11 -14
-13 -13 -18 7 -5 18 -11 22 -31 18 -14 -3 -27 0 -29 6 -6 15 -43 -8 -39 -24 1
-7 -5 -9 -15 -6 -10 3 -96 23 -192 45 -96 23 -194 50 -218 62 -98 48 -127 172
-128 554 0 262 8 330 46 412 26 54 53 71 179 110 153 47 145 50 157 -54z
m-507 16 c52 -5 107 -12 121 -15 l26 -5 -23 -57 c-12 -31 -26 -83 -29 -116
l-8 -58 -86 6 c-144 11 -137 8 -145 79 -12 106 -26 157 -43 157 -14 0 -15 -11
-9 -77 9 -97 49 -318 81 -443 23 -88 60 -211 179 -593 25 -81 46 -152 46 -157
0 -15 -70 -12 -74 3 -2 6 -45 140 -95 297 -125 390 -168 576 -193 834 -12 121
-26 134 -27 26 -2 -167 70 -493 193 -869 47 -144 86 -270 86 -281 0 -13 -10
-24 -25 -30 -33 -12 -43 -55 -22 -92 12 -20 19 -78 27 -215 9 -157 15 -195 32
-231 36 -72 35 -72 403 -72 356 0 371 2 394 57 16 40 39 299 31 345 -17 89
-100 158 -192 161 -174 6 -648 -4 -648 -14 0 -7 102 -10 343 -8 216 1 351 -2
367 -8 37 -16 88 -71 101 -112 13 -37 -2 -257 -22 -333 -18 -68 -16 -68 -379
-68 -414 0 -383 -22 -395 273 l-7 177 57 0 58 0 -6 -97 c-4 -54 -9 -147 -13
-208 l-7 -110 34 50 c81 119 249 163 461 120 44 -9 99 -23 121 -31 22 -8 41
-13 43 -11 2 1 8 44 14 95 9 69 9 101 0 127 -13 39 -68 92 -107 101 -15 4
-177 4 -360 1 l-333 -6 0 34 c0 24 6 38 20 45 14 7 134 10 373 8 313 -3 356
-5 384 -21 54 -29 102 -86 120 -143 15 -50 15 -62 0 -195 -19 -159 -35 -202
-86 -236 -34 -23 -37 -23 -373 -23 -384 0 -379 -1 -448 77 -22 25 -49 70 -61
102 -12 31 -41 177 -65 326 -24 149 -59 358 -78 465 -78 438 -125 840 -106
909 22 83 65 90 350 60z m864 -35 c9 -22 8 -24 -9 -24 -8 0 -15 9 -15 20 0 24
15 27 24 4z m115 -32 c30 -20 61 -48 70 -62 12 -19 13 -22 2 -15 -11 6 -13 4
-7 -11 5 -10 17 -61 28 -113 20 -97 17 -110 -20 -111 -23 0 -7 -25 18 -28 23
-4 23 -4 18 -125 -5 -106 -11 -137 -43 -232 -27 -81 -35 -118 -30 -144 5 -29
4 -33 -10 -27 -9 3 -21 6 -27 6 -13 0 -6 65 22 195 19 87 21 120 16 245 -6
174 -30 290 -80 389 -23 44 -31 71 -24 70 7 0 37 -17 67 -37z m-287 -69 c91
-136 166 -284 207 -410 23 -68 41 -132 41 -141 0 -35 -208 382 -307 617 -14
31 16 -2 59 -66z m183 20 c4 -18 3 -33 -2 -33 -12 0 -34 61 -27 72 9 14 21 -3
29 -39z m60 -50 c31 -134 45 -223 49 -311 l6 -107 -20 98 c-10 53 -31 145 -45
203 -29 121 -28 117 -15 109 5 -3 3 13 -5 36 -8 23 -15 44 -15 48 0 11 41 -57
45 -76z m-105 -88 l0 -70 -35 65 c-40 74 -39 71 -21 64 8 -3 14 1 13 8 0 7 1
22 2 33 1 19 3 18 21 -5 15 -19 20 -41 20 -95z m-180 67 c0 -9 25 -69 55 -132
30 -63 49 -107 42 -96 -7 10 -45 61 -84 114 l-73 96 22 23 c22 24 38 22 38 -5z
m447 -74 c-3 -8 -6 -5 -6 6 -1 11 2 17 5 13 3 -3 4 -12 1 -19z m119 -372 c13
-33 24 -61 24 -63 0 -1 -13 -9 -29 -18 -27 -14 -30 -13 -35 3 -5 19 -22 133
-30 202 l-5 45 26 -55 c14 -30 36 -82 49 -114z m-1123 -254 c31 -89 65 -135
129 -175 46 -29 48 -32 48 -76 0 -25 -3 -70 -6 -98 l-7 -53 -51 0 -52 0 -64
208 c-62 197 -65 212 -65 307 0 60 6 120 15 150 l15 50 6 -120 c5 -91 13 -138
32 -193z m2201 220 c-40 -38 -226 -280 -353 -459 l-72 -102 -132 1 c-73 1
-143 -2 -157 -6 l-25 -8 21 22 c14 14 46 26 95 36 l74 14 -62 -6 c-35 -3 -77
-10 -94 -16 -47 -16 -52 2 -12 50 25 30 40 41 53 37 10 -3 21 -1 24 4 4 6 14
8 24 5 14 -5 15 -4 2 5 -21 15 33 78 101 116 62 35 75 65 35 80 l-26 10 53 69
52 68 205 58 c113 32 211 59 219 59 7 1 -4 -16 -25 -37z m65 -29 c-38 -40
-111 -132 -219 -274 -83 -109 -221 -269 -233 -269 -11 0 5 23 221 312 177 238
202 265 252 267 8 1 -1 -14 -21 -36z m-1110 -53 c-8 -4 -24 -11 -36 -14 -33
-10 -28 10 5 22 29 10 53 4 31 -8z m192 -82 l86 -21 -33 -44 c-19 -25 -34 -51
-34 -59 0 -17 3 -17 -76 2 -55 14 -76 26 -125 72 -32 30 -59 58 -59 64 0 5 14
15 32 22 27 12 39 12 77 0 26 -8 85 -24 132 -36z m-300 -131 c33 -26 34 -27 9
-27 -38 0 -90 36 -90 62 0 13 -3 34 -7 48 -5 20 0 17 25 -16 16 -22 45 -53 63
-67z m398 62 c-12 -17 -30 -61 -40 -97 l-19 -67 4 59 c5 58 43 136 67 136 6 0
0 -14 -12 -31z m226 9 c25 -12 45 -26 45 -30 0 -13 -48 -9 -85 6 -36 16 -46 8
-20 -14 22 -19 3 -35 -24 -21 -17 10 -21 9 -21 -3 0 -8 -8 -17 -17 -19 -18 -5
31 -11 52 -8 6 1 -2 -10 -16 -24 -26 -27 -27 -27 -83 -14 -31 7 -59 16 -62 21
-11 17 6 57 37 93 29 33 35 35 90 35 40 0 73 -7 104 -22z m-10 -68 c-3 -5 -11
-10 -16 -10 -6 0 -7 5 -4 10 3 6 11 10 16 10 6 0 7 -4 4 -10z m-747 -11 l30
-10 -19 -56 c-11 -30 -26 -79 -33 -107 -13 -47 -16 -51 -42 -49 -50 4 -51 23
-12 161 12 39 26 72 33 72 7 0 26 -5 43 -11z m334 -90 c43 -21 82 -48 88 -59
12 -23 3 -27 -14 -6 -13 17 -149 80 -140 64 4 -6 35 -23 70 -39 35 -16 64 -33
64 -37 0 -5 27 -23 60 -42 33 -19 60 -37 60 -41 0 -3 -8 -13 -17 -20 -16 -13
-17 -12 -5 3 12 15 11 16 -18 5 -30 -11 -39 -8 -143 47 -116 61 -130 54 -24
-12 48 -29 56 -38 40 -40 -12 -2 -40 6 -62 17 -26 14 -59 21 -96 21 -53 0
-125 25 -140 49 -3 6 -13 7 -22 4 -14 -6 -15 0 -10 45 10 89 11 90 129 84 95
-4 109 -8 180 -43z m272 7 l31 -13 -28 -14 c-25 -11 -33 -11 -55 2 -15 8 -28
23 -30 33 -3 16 0 18 23 12 15 -4 42 -13 59 -20z m449 -75 c-6 -3 -13 -17 -16
-31 -10 -39 -25 -56 -37 -44 -7 7 0 24 23 57 17 25 34 42 36 36 2 -6 -1 -14
-6 -18z m-513 1 c0 -5 -8 -16 -19 -26 -16 -14 -20 -15 -30 -2 -7 8 -10 20 -6
26 7 12 55 14 55 2z m-830 -22 c0 -5 -5 -10 -11 -10 -5 0 -7 5 -4 10 3 6 8 10
11 10 2 0 4 -4 4 -10z m485 -161 c13 -19 -49 18 -90 56 l-40 36 62 -40 c34
-23 65 -46 68 -52z m-376 56 c64 -14 126 -28 139 -31 23 -5 23 -5 -20 -84 -24
-44 -45 -80 -48 -79 -3 0 -18 21 -35 47 -23 35 -46 55 -93 79 l-64 33 -176 1
c-151 1 -169 3 -122 12 30 5 93 18 140 27 116 24 145 24 279 -5z m1101 -53 c0
-11 -247 -22 -487 -22 -167 0 -196 4 -176 23 10 10 663 8 663 -1z m-701 -135
c291 -137 317 -162 315 -312 -1 -104 -30 -211 -56 -209 -12 1 -17 -14 -21 -70
-3 -39 -35 -188 -71 -331 -35 -143 -72 -295 -81 -337 -9 -43 -21 -78 -26 -78
-5 0 -3 12 3 28 8 17 13 123 15 302 2 200 7 286 17 316 13 40 13 42 -8 54 -13
6 -30 24 -39 40 -16 26 -15 31 8 100 20 60 36 85 85 136 33 34 60 65 60 68 0
8 -34 -9 -72 -35 -37 -27 -43 -24 -18 11 12 17 19 37 16 45 -7 19 -139 85
-291 146 -66 27 -120 52 -120 56 0 15 87 153 97 153 5 0 89 -37 187 -83z m469
56 c37 -38 21 -38 -118 -4 l-115 29 103 1 c99 1 104 0 130 -26z m65 -8 c21
-43 21 -45 2 -45 -8 0 -15 8 -15 17 0 9 -10 27 -22 40 -21 22 -21 23 -2 23 13
0 26 -12 37 -35z m-1093 -35 c10 -6 -45 -10 -165 -10 -120 0 -175 4 -165 10 8
5 83 10 165 10 83 0 157 -5 165 -10z m-376 -32 c3 -18 8 -56 12 -84 l6 -51
-58 -16 c-32 -9 -59 -16 -59 -14 -1 1 -5 43 -8 94 l-7 92 43 4 c23 2 47 4 53
5 7 1 14 -13 18 -30z m1398 3 c172 -45 220 -66 266 -115 75 -82 76 -158 2
-526 -16 -80 -43 -221 -60 -315 -18 -93 -33 -176 -36 -182 -3 -12 -44 -19 -44
-8 0 3 11 96 24 208 23 189 39 351 29 300 -4 -23 -23 -33 -23 -13 0 12 -41 73
-53 78 -4 2 -5 7 -2 12 3 4 -2 11 -11 14 -8 3 -13 2 -9 -3 3 -5 2 -11 -2 -13
-5 -1 -17 -20 -27 -40 -20 -40 -24 -42 -44 -30 -23 15 49 208 112 297 l21 30
-30 -19 c-17 -10 -43 -28 -60 -41 -55 -40 -55 -37 -5 47 27 46 50 87 50 91 0
5 -25 -5 -55 -21 -70 -38 -72 -26 -2 15 69 42 121 56 190 52 l56 -4 -32 33
c-39 41 -110 75 -252 122 -192 63 -194 80 -3 31z m-668 -329 c36 -21 54 -54
58 -103 l3 -34 -128 -3 -129 -3 20 26 c20 25 33 59 47 119 6 28 8 28 52 22 26
-3 60 -14 77 -24z m154 -90 c2 -22 -2 -34 -13 -38 -21 -8 -23 -6 -39 55 l-13
51 31 -18 c23 -13 32 -26 34 -50z m402 -32 c0 -5 -5 -10 -11 -10 -5 0 -7 5 -4
10 3 6 8 10 11 10 2 0 4 -4 4 -10z m-410 -54 c0 -3 -7 -38 -15 -78 -18 -81
-34 -316 -35 -482 l0 -108 -30 6 c-17 3 -56 13 -87 22 l-56 16 6 104 c4 77 3
104 -6 105 -7 1 -19 2 -27 3 -22 2 -28 126 -5 126 12 0 15 15 15 89 l0 90 28
3 c24 3 27 8 30 44 l3 41 72 10 c94 13 107 14 107 9z m407 -38 c-18 -103 -17
-137 18 -398 19 -151 38 -290 41 -307 5 -26 3 -33 -10 -33 -24 0 -220 50 -236
60 -12 7 -3 55 47 272 34 145 67 295 74 333 14 85 24 105 50 105 18 0 20 -4
16 -32z m-550 -693 c43 -31 78 -59 77 -63 0 -4 -4 -24 -8 -45 -6 -25 -4 -42 4
-52 10 -12 10 -21 0 -45 -7 -16 -16 -30 -21 -30 -13 0 -189 268 -189 287 0 28
54 7 137 -52z m35 39 c32 -9 58 -19 57 -23 0 -3 -4 -14 -7 -23 -6 -16 -14 -13
-67 22 -67 45 -66 47 17 24z m466 -95 c120 -31 154 -50 90 -48 -50 1 -251 62
-256 78 -3 10 1 12 19 8 13 -4 79 -21 147 -38z m-95 -35 c50 -16 76 -34 47
-34 -34 0 -130 35 -130 48 0 8 6 12 13 9 6 -2 38 -13 70 -23z m30 -58 c65 -19
120 -36 123 -38 2 -3 -5 -26 -17 -53 -13 -29 -20 -61 -17 -85 l3 -38 -59 -6
c-127 -13 -133 -10 -185 91 -32 65 -29 73 29 73 28 0 50 5 50 10 0 6 -20 10
-44 10 l-43 0 11 35 c6 19 16 35 21 35 6 0 64 -15 128 -34z m194 6 c-10 -10
-17 -29 -18 -43 -1 -22 -2 -21 -10 6 -12 39 -5 55 22 55 21 0 21 -1 6 -18z
m268 -12 c-3 -5 -15 -10 -25 -10 -10 0 -21 -4 -25 -9 -9 -15 32 -23 57 -11 21
10 21 10 5 -3 -16 -13 -13 -16 35 -36 29 -11 71 -25 93 -30 32 -7 35 -9 13
-10 -30 -1 -95 19 -177 55 l-53 24 23 20 c25 20 65 28 54 10z m-1335 -27 c-1
-11 -26 -43 -34 -43 -10 0 -7 25 6 38 13 13 28 16 28 5z m1037 -55 c-3 -8 -6
-5 -6 6 -1 11 2 17 5 13 3 -3 4 -12 1 -19z m-1392 -55 c4 -16 0 -34 -10 -49
-20 -31 -29 -30 -21 2 4 14 2 32 -4 39 -13 16 -2 45 15 39 7 -3 16 -17 20 -31z
m1015 -10 c-19 -8 -36 -16 -38 -18 -1 -1 9 -22 23 -46 36 -64 31 -69 -10 -9
-19 29 -35 55 -35 59 0 12 42 30 70 30 22 -1 21 -2 -10 -16z m575 -14 c50 -10
119 -26 155 -34 93 -21 253 -16 345 11 13 4 17 3 10 -4 -18 -18 -114 -32 -218
-32 -79 0 -128 6 -217 29 -63 16 -142 32 -176 36 -33 3 -67 11 -75 16 -19 12
62 2 176 -22z m-542 -20 c-6 -6 -19 -9 -29 -6 -17 3 -16 5 6 14 28 12 39 8 23
-8z m22 -44 c-16 -7 -32 -11 -35 -9 -7 8 24 24 45 23 15 0 13 -4 -10 -14z m55
-20 c0 -5 -55 -35 -65 -35 -13 0 8 22 29 30 25 10 36 12 36 5z m-167 -74 c86
-54 132 -65 272 -65 118 0 118 -13 0 -15 -129 -2 -244 32 -321 94 -44 37 -21
30 49 -14z"/>
<path d="M2118 4433 c12 -2 30 -2 40 0 9 3 -1 5 -23 4 -22 0 -30 -2 -17 -4z"/>
<path d="M2308 4288 c-41 -14 -34 -30 10 -23 l37 6 -29 -17 -29 -16 24 -14
c33 -18 34 -18 69 16 27 26 28 30 12 38 -31 16 -67 20 -94 10z"/>
<path d="M2088 4249 c-13 -7 -15 -13 -8 -22 6 -7 17 -21 25 -32 14 -19 14 -19
15 7 0 15 -5 30 -10 33 -6 4 -8 11 -5 16 8 11 5 11 -17 -2z"/>
<path d="M3618 3213 c7 -3 16 -2 19 1 4 3 -2 6 -13 5 -11 0 -14 -3 -6 -6z"/>
<path d="M3485 3187 c-44 -11 -75 -22 -70 -23 6 -2 51 7 100 20 50 13 81 24
70 24 -11 0 -56 -9 -100 -21z"/>
<path d="M3379 3143 c-13 -16 -12 -17 4 -4 16 13 21 21 13 21 -2 0 -10 -8 -17
-17z"/>
<path d="M3533 3133 c9 -2 23 -2 30 0 6 3 -1 5 -18 5 -16 0 -22 -2 -12 -5z"/>
<path d="M3478 3123 c6 -2 18 -2 25 0 6 3 1 5 -13 5 -14 0 -19 -2 -12 -5z"/>
<path d="M3438 3113 c7 -3 16 -2 19 1 4 3 -2 6 -13 5 -11 0 -14 -3 -6 -6z"/>
<path d="M3398 3103 c7 -3 16 -2 19 1 4 3 -2 6 -13 5 -11 0 -14 -3 -6 -6z"/>
<path d="M3358 3093 c7 -3 16 -2 19 1 4 3 -2 6 -13 5 -11 0 -14 -3 -6 -6z"/>
<path d="M3518 3093 c7 -3 16 -2 19 1 4 3 -2 6 -13 5 -11 0 -14 -3 -6 -6z"/>
<path d="M3445 3080 c-13 -5 -14 -9 -5 -9 8 0 24 4 35 9 13 5 14 9 5 9 -8 0
-24 -4 -35 -9z"/>
<path d="M3488 3053 c7 -3 16 -2 19 1 4 3 -2 6 -13 5 -11 0 -14 -3 -6 -6z"/>
<path d="M3438 3043 c7 -3 16 -2 19 1 4 3 -2 6 -13 5 -11 0 -14 -3 -6 -6z"/>
<path d="M3388 3033 c7 -3 16 -2 19 1 4 3 -2 6 -13 5 -11 0 -14 -3 -6 -6z"/>
<path d="M3448 3013 c7 -3 16 -2 19 1 4 3 -2 6 -13 5 -11 0 -14 -3 -6 -6z"/>
<path d="M3398 3003 c7 -3 16 -2 19 1 4 3 -2 6 -13 5 -11 0 -14 -3 -6 -6z"/>
<path d="M3398 2973 c6 -2 18 -2 25 0 6 3 1 5 -13 5 -14 0 -19 -2 -12 -5z"/>
<path d="M3343 2963 c9 -2 23 -2 30 0 6 3 -1 5 -18 5 -16 0 -22 -2 -12 -5z"/>
<path d="M3278 2953 c6 -2 18 -2 25 0 6 3 1 5 -13 5 -14 0 -19 -2 -12 -5z"/>
<path d="M3343 2913 c9 -2 23 -2 30 0 6 3 -1 5 -18 5 -16 0 -22 -2 -12 -5z"/>
<path d="M3273 2903 c9 -2 23 -2 30 0 6 3 -1 5 -18 5 -16 0 -22 -2 -12 -5z"/>
<path d="M3218 2893 c7 -3 16 -2 19 1 4 3 -2 6 -13 5 -11 0 -14 -3 -6 -6z"/>
<path d="M3358 2873 c6 -2 18 -2 25 0 6 3 1 5 -13 5 -14 0 -19 -2 -12 -5z"/>
<path d="M3258 2863 c12 -2 32 -2 45 0 12 2 2 4 -23 4 -25 0 -35 -2 -22 -4z"/>
<path d="M3198 2853 c6 -2 18 -2 25 0 6 3 1 5 -13 5 -14 0 -19 -2 -12 -5z"/>
<path d="M3303 2823 c9 -2 25 -2 35 0 9 3 1 5 -18 5 -19 0 -27 -2 -17 -5z"/>
<path d="M3203 2813 c9 -2 25 -2 35 0 9 3 1 5 -18 5 -19 0 -27 -2 -17 -5z"/>
<path d="M3148 2803 c7 -3 16 -2 19 1 4 3 -2 6 -13 5 -11 0 -14 -3 -6 -6z"/>
<path d="M3263 2773 c9 -2 23 -2 30 0 6 3 -1 5 -18 5 -16 0 -22 -2 -12 -5z"/>
<path d="M2765 2821 c8 -14 195 -114 201 -108 5 5 -186 117 -200 117 -4 0 -5
-4 -1 -9z"/>
<path d="M1835 1176 c-176 -53 -171 -51 -160 -58 10 -6 300 84 312 96 11 11
-9 6 -152 -38z"/>
</g>
</svg>