<svg viewBox="0 0 256 256" fill="none" xmlns="http://www.w3.org/2000/svg">
<path d="M187.116 219.177C184.612 227.891 179.812 235.776 173.217 242.006C166.621 248.237 158.472 252.587 149.619 254.601C142.193 256.352 134.475 256.461 127.003 254.921C114.572 252.325 103.571 245.16 96.1826 234.846C93.8387 231.638 91.1284 228.713 88.1064 226.131C86.1403 224.434 84.0435 222.893 81.8355 221.524C74.127 216.717 65.2801 214.038 56.1965 213.758C55.5448 213.758 54.8825 213.758 54.2201 213.758H53.1519H50.9298C13.4328 213.193 -9.86667 174.292 4.69414 141.738C6.19708 138.398 8.04452 135.223 10.2065 132.266C16.6377 123.4 20.0694 112.717 20.0028 101.77C19.9601 96.0341 18.96 90.3455 17.0436 84.938C15.8346 81.5309 14.972 78.011 14.469 74.4315C14.1648 72.2507 14.0078 70.052 13.999 67.8502C13.9599 62.0354 14.9434 56.2589 16.9047 50.7837C18.965 45.0267 22.0282 39.6787 25.9531 34.9865C32.4922 27.0367 41.2908 21.2523 51.1887 18.3961C61.0866 15.5398 71.6191 15.7457 81.3975 18.9866C86.6296 20.6222 92.0895 21.4143 97.5714 21.3333C108.786 21.242 119.664 17.4967 128.552 10.6667C137.373 3.81977 148.21 0.0704096 159.383 0.000106928C167.631 -0.0165494 175.765 1.91297 183.125 5.63138C190.484 9.34979 196.859 14.7519 201.73 21.3973C204.482 25.1857 206.689 29.3396 208.289 33.7385C210.322 39.4132 211.356 45.3967 211.344 51.4237C211.35 59.7544 213.385 67.9588 217.275 75.3289C221.165 82.6989 226.792 89.0133 233.672 93.7273C240.523 98.3619 246.15 104.583 250.07 111.86C251.461 114.477 252.62 117.212 253.531 120.031C255.139 125.034 255.972 130.254 255.999 135.508C256.056 143.768 254.16 151.925 250.465 159.316V159.316C247.441 165.372 243.227 170.759 238.076 175.157C232.924 179.555 226.94 182.873 220.478 184.916C212.548 187.497 205.364 191.964 199.547 197.932C193.729 203.9 189.452 211.191 187.084 219.177H187.116Z" fill="#E8F0FE"/>
<path d="M83.1496 216.041C73.535 170.665 65.6403 97.2683 87.8608 22.3997" stroke="#D2E3FC" stroke-width="1.11" stroke-linejoin="round"/>
<path d="M110.668 52.9597C112.805 41.6425 115.401 30.2186 118.574 18.7627" stroke="#D2E3FC" stroke-width="1.11" stroke-linejoin="round"/>
<path d="M115.861 249.278C106.246 216.03 97.5289 159.54 107.229 74.0154" stroke="#D2E3FC" stroke-width="1.11" stroke-linejoin="round"/>
<path d="M98.9282 50.229L99.7294 46.2504C100.029 44.7997 100.338 43.3491 100.648 41.8984" stroke="#D2E3FC" stroke-width="1.11" stroke-linejoin="round"/>
<path d="M98.7144 229.78C92.3047 192.895 85.4783 129.631 96.9624 61.0984" stroke="#D2E3FC" stroke-width="1.11" stroke-linejoin="round"/>
<path d="M132.697 10.1333C132.697 10.1333 125.988 26.6665 123.413 42.9117C120.839 59.1569 123.082 71.5621 135.816 71.5621C148.55 71.5621 146.2 34.8584 156.338 27.8291" stroke="#D2E3FC" stroke-width="1.11" stroke-linejoin="round"/>
<path d="M132.867 254.27C125.923 237.203 119.332 212.532 118.723 179.348" stroke="#D2E3FC" stroke-width="1.11" stroke-linejoin="round"/>
<path d="M149.854 252.393C149.854 252.393 146.446 246.249 140.122 202.473" stroke="#D2E3FC" stroke-width="1.11" stroke-linejoin="round"/>
<path d="M172.053 13.5042C172.053 13.5042 138.583 153.535 162.673 247.465" stroke="#D2E3FC" stroke-width="1.11" stroke-linejoin="round"/>
<path d="M183.729 27.5305C183.729 27.5305 154.886 147.369 174.959 238.174" stroke="#D2E3FC" stroke-width="1.11" stroke-linejoin="round"/>
<path d="M183.505 148.148C181.71 172.148 181.518 197.812 184.573 222.558" stroke="#D2E3FC" stroke-width="1.11" stroke-linejoin="round"/>
<path d="M204.743 30.1545C204.743 30.1545 190.225 80.9914 184.809 133.546" stroke="#D2E3FC" stroke-width="1.11" stroke-linejoin="round"/>
<path d="M211.857 66.3782C207.392 85.3327 200.576 117.204 199.166 140.586C197.029 176.031 238.158 152.095 251.405 127.092" stroke="#D2E3FC" stroke-width="1.11" stroke-linejoin="round"/>
<path d="M219.538 82.6234C215.991 97.7486 212.477 114.399 210.511 128.191C205.511 163.305 234.9 142.228 246.107 118.228" stroke="#D2E3FC" stroke-width="1.11" stroke-linejoin="round"/>
<path d="M64.3257 212.894V18.1758" stroke="#D2E3FC" stroke-width="1.11" stroke-linejoin="round"/>
<path d="M61.335 212.894V18.7627" stroke="#D2E3FC" stroke-width="1.11" stroke-linejoin="round"/>
<path d="M38.2383 209.758V26.5491" stroke="#D2E3FC" stroke-width="1.11" stroke-linejoin="round"/>
<path d="M97.0371 234.867H147.386C149.752 234.867 152.02 233.929 153.693 232.259C155.366 230.588 156.306 228.323 156.306 225.961V134.068C156.306 131.706 155.366 129.441 153.693 127.77C152.02 126.1 149.752 125.162 147.386 125.162H84.3138C81.948 125.162 79.6791 126.1 78.0062 127.77C76.3334 129.441 75.3936 131.706 75.3936 134.068V216.809C75.3936 216.809 90.777 220.798 97.0371 234.867Z" fill="#E8F0FE"/>
<path d="M75.3936 216.041V134.068C75.3936 131.706 76.3334 129.441 78.0062 127.77C79.6791 126.1 81.948 125.162 84.3138 125.162H147.418C149.784 125.162 152.052 126.1 153.725 127.77C155.398 129.441 156.338 131.706 156.338 134.068V225.961C156.338 228.323 155.398 230.588 153.725 232.259C152.052 233.929 149.784 234.867 147.418 234.867H97.7209" stroke="#D2E3FC" stroke-width="1.11" stroke-linejoin="round"/>
<path d="M115.871 197.47C125.895 197.47 134.021 189.357 134.021 179.348C134.021 169.339 125.895 161.225 115.871 161.225C105.847 161.225 97.7207 169.339 97.7207 179.348C97.7207 189.357 105.847 197.47 115.871 197.47Z" fill="#E8F0FE" stroke="#D2E3FC" stroke-width="1.11" stroke-linejoin="round"/>
<path d="M80.9702 140.586H150.815" stroke="#D2E3FC" stroke-width="1.11" stroke-linejoin="round"/>
<path d="M120.08 149.492H111.822V154.612H120.08V149.492Z" fill="#E8F0FE" stroke="#D2E3FC" stroke-width="1.11" stroke-linejoin="round"/>
<path d="M192.446 170.068H115.252C110.113 170.068 105.947 174.227 105.947 179.358C105.947 184.489 110.113 188.649 115.252 188.649H192.446C197.585 188.649 201.751 184.489 201.751 179.358C201.751 174.227 197.585 170.068 192.446 170.068Z" fill="#E8F0FE" stroke="#D2E3FC" stroke-width="1.11" stroke-linejoin="round"/>
<path d="M208.578 142.473C205.761 141.7 202.819 141.487 199.919 141.849C197.02 142.211 194.221 143.139 191.681 144.582C189.141 146.024 186.911 147.951 185.118 150.255C183.325 152.558 182.003 155.191 181.23 158.004L169.019 202.302C168.816 203.038 168.761 203.807 168.856 204.565C168.95 205.322 169.194 206.054 169.572 206.717C169.95 207.381 170.455 207.964 171.058 208.432C171.662 208.901 172.352 209.246 173.089 209.449L205.223 218.27C205.961 218.474 206.732 218.531 207.492 218.437C208.252 218.343 208.986 218.1 209.652 217.723C210.318 217.345 210.902 216.84 211.372 216.237C211.843 215.634 212.189 214.943 212.392 214.206L234.259 134.815C237.464 123.082 230.649 110.356 218.919 106.975C213.94 105.538 208.617 105.859 203.849 107.886C199.081 109.913 195.159 113.521 192.746 118.1C192.475 118.627 192.326 119.207 192.308 119.798C192.29 120.389 192.404 120.977 192.643 121.518C192.881 122.06 193.238 122.542 193.686 122.928C194.134 123.315 194.664 123.597 195.235 123.754V123.754C196.105 123.993 197.031 123.928 197.861 123.572C198.69 123.215 199.372 122.587 199.796 121.791C201.473 118.601 204.277 116.147 207.664 114.906C211.052 113.665 214.78 113.727 218.125 115.078C221.47 116.429 224.192 118.974 225.762 122.218C227.332 125.461 227.638 129.172 226.621 132.628C225.5 136.299 222.983 139.385 219.61 141.225C216.238 143.065 212.277 143.513 208.578 142.473V142.473Z" fill="#AECBFA"/>
<path d="M90.4456 86.9114C87.6272 86.1286 84.6818 85.9083 81.778 86.2633C78.8743 86.6182 76.0691 87.5413 73.523 88.9799C70.9769 90.4184 68.7399 92.3441 66.9399 94.6467C65.14 96.9494 63.8125 99.5838 63.0333 102.399L41.411 180.084C41.1592 180.987 41.0879 181.93 41.2012 182.861C41.3146 183.791 41.6103 184.69 42.0716 185.506C42.5329 186.322 43.1507 187.039 43.8897 187.617C44.6287 188.195 45.4744 188.622 46.3786 188.873L75.5216 196.948C76.4244 197.199 77.3679 197.271 78.2984 197.158C79.2288 197.046 80.1279 196.751 80.9444 196.292C81.7608 195.832 82.4786 195.216 83.0567 194.48C83.6348 193.743 84.0619 192.9 84.3136 191.998L105.947 114.293C106.729 111.478 106.95 108.538 106.594 105.639C106.239 102.74 105.315 99.939 103.876 97.3964C102.436 94.8538 100.51 92.6192 98.2051 90.8202C95.9008 89.0212 93.2641 87.693 90.4456 86.9114V86.9114ZM80.361 123.178C77.6252 122.412 75.178 120.853 73.3285 118.7C71.4789 116.546 70.3098 113.894 69.9687 111.077C69.6277 108.261 70.13 105.406 71.4123 102.875C72.6945 100.343 74.6992 98.2475 77.1733 96.8524C79.6474 95.4574 82.48 94.8255 85.3135 95.0365C88.147 95.2475 90.8543 96.292 93.0938 98.038C95.3332 99.7841 97.0044 102.153 97.8964 104.847C98.7883 107.541 98.861 110.438 98.1053 113.173C97.5994 114.993 96.7387 116.696 95.5724 118.184C94.4061 119.671 92.9572 120.915 91.3087 121.842C89.6603 122.77 87.8447 123.363 85.966 123.589C84.0874 123.814 82.1826 123.667 80.361 123.156V123.178Z" fill="#AECBFA"/>
<path d="M145.303 41.9837L121.8 45.781C119.094 46.2233 116.675 47.7196 115.072 49.9414C113.47 52.1631 112.816 54.9289 113.254 57.6315L128.018 148.991C128.167 149.916 128.498 150.803 128.99 151.6C129.483 152.398 130.128 153.091 130.889 153.64C131.65 154.189 132.511 154.582 133.425 154.799C134.338 155.015 135.285 155.049 136.212 154.9L166.06 150.089C167.932 149.786 169.607 148.752 170.717 147.216C171.826 145.68 172.28 143.767 171.978 141.897L157.182 50.5489C156.741 47.8417 155.243 45.4195 153.016 43.8138C150.789 42.208 148.015 41.5499 145.303 41.9837ZM139.555 81.066C136.748 81.5193 133.868 81.131 131.282 79.9502C128.695 78.7694 126.517 76.8493 125.023 74.4325C123.53 72.0158 122.787 69.211 122.89 66.373C122.993 63.535 123.937 60.7913 125.602 58.4888C127.267 56.1863 129.578 54.4285 132.244 53.4377C134.909 52.447 137.809 52.2678 140.577 52.9227C143.344 53.5777 145.855 55.0374 147.791 57.1173C149.728 59.1972 151.003 61.8038 151.456 64.6075C152.063 68.3656 151.15 72.2106 148.919 75.2969C146.687 78.3833 143.319 80.4584 139.555 81.066V81.066Z" fill="#4285F4"/>
<path d="M25.3975 78.9327C28.2665 78.3833 31.2157 78.4036 34.0769 78.9923C36.938 79.5811 39.6549 80.7269 42.0725 82.3642C44.4901 84.0015 46.561 86.0983 48.1668 88.5348C49.7727 90.9714 50.8822 93.6999 51.4318 96.5646L60.0956 141.684C60.2412 142.434 60.2369 143.206 60.083 143.955C59.9291 144.703 59.6287 145.414 59.1989 146.046C58.769 146.679 58.2184 147.22 57.5785 147.639C56.9385 148.059 56.222 148.348 55.4699 148.489L22.7375 154.751C21.2217 155.042 19.6523 154.72 18.3743 153.856C17.0962 152.991 16.2141 151.656 15.9218 150.143L0.399499 69.2688C-1.89733 57.3009 5.94393 45.173 17.8981 42.7197C22.9759 41.6777 28.2584 42.4185 32.8522 44.8169C37.4461 47.2152 41.0695 51.124 43.1098 55.8823C43.3381 56.4275 43.4415 57.0167 43.4126 57.6069C43.3837 58.1971 43.2231 58.7734 42.9426 59.2937C42.662 59.814 42.2687 60.2652 41.7912 60.6143C41.3137 60.9634 40.7642 61.2016 40.1827 61.3116V61.3116C39.2962 61.4828 38.3778 61.3467 37.5794 60.9258C36.7809 60.5049 36.1503 59.8244 35.792 58.9969C34.7069 56.4717 32.9263 54.3058 30.6571 52.7511C28.3879 51.1963 25.7235 50.3165 22.9733 50.2139C20.2232 50.1113 17.5004 50.7902 15.1214 52.1715C12.7424 53.5529 10.8048 55.5801 9.53402 58.0174C8.26321 60.4547 7.71129 63.2021 7.94242 65.9402C8.17355 68.6784 9.17823 71.2948 10.8397 73.4853C12.5012 75.6759 14.7512 77.3507 17.3282 78.315C19.9052 79.2793 22.7034 79.4935 25.3975 78.9327V78.9327Z" fill="#4285F4"/>
<path d="M33.8904 141.652C43.3894 141.652 51.0899 133.963 51.0899 124.479C51.0899 114.994 43.3894 107.306 33.8904 107.306C24.3914 107.306 16.6909 114.994 16.6909 124.479C16.6909 133.963 24.3914 141.652 33.8904 141.652Z" fill="white"/>
<path d="M30.7178 131.135L37.0741 117.812" stroke="#4285F4" stroke-width="1.23" stroke-miterlimit="10"/>
<path d="M27.9507 122.666L36.3261 118.143C36.4148 118.101 36.5119 118.078 36.6103 118.078C36.7087 118.078 36.8059 118.099 36.8949 118.141C36.9839 118.183 37.0625 118.244 37.1249 118.32C37.1872 118.396 37.2319 118.485 37.2555 118.58L39.0289 127.999" stroke="#4285F4" stroke-width="1.23" stroke-miterlimit="10"/>
<path d="M146.83 143.135C156.329 143.135 164.03 135.446 164.03 125.962C164.03 116.477 156.329 108.789 146.83 108.789C137.331 108.789 129.631 116.477 129.631 125.962C129.631 135.446 137.331 143.135 146.83 143.135Z" fill="white"/>
<path d="M143.658 132.618L150.003 119.295" stroke="#4285F4" stroke-width="1.23" stroke-miterlimit="10"/>
<path d="M140.89 124.18L149.266 119.658C149.353 119.615 149.45 119.593 149.548 119.593C149.645 119.592 149.742 119.614 149.83 119.656C149.918 119.698 149.996 119.759 150.057 119.835C150.119 119.911 150.162 120 150.184 120.095L151.958 129.439" stroke="#4285F4" stroke-width="1.23" stroke-miterlimit="10"/>
<path d="M67.4031 185.972C76.9021 185.972 84.6026 178.283 84.6026 168.799C84.6026 159.314 76.9021 151.625 67.4031 151.625C57.9041 151.625 50.2036 159.314 50.2036 168.799C50.2036 178.283 57.9041 185.972 67.4031 185.972Z" fill="white"/>
<path d="M64.2515 162.132L70.5544 175.465" stroke="#AECBFA" stroke-width="1.11" stroke-miterlimit="10"/>
<path d="M72.541 165.332L70.7463 174.676C70.7231 174.771 70.6786 174.861 70.6161 174.936C70.5535 175.012 70.4746 175.073 70.3851 175.114C70.2957 175.155 70.1981 175.175 70.0997 175.173C70.0013 175.171 69.9046 175.147 69.8169 175.103L61.4521 170.559" stroke="#AECBFA" stroke-width="1.11" stroke-miterlimit="10"/>
<path d="M196.602 206.58C206.101 206.58 213.802 198.891 213.802 189.406C213.802 179.922 206.101 172.233 196.602 172.233C187.103 172.233 179.403 179.922 179.403 189.406C179.403 198.891 187.103 206.58 196.602 206.58Z" fill="white"/>
<path d="M193.45 182.74L199.753 196.073" stroke="#AECBFA" stroke-width="1.11" stroke-miterlimit="10"/>
<path d="M201.73 185.94L199.935 195.273C199.913 195.369 199.87 195.46 199.808 195.537C199.746 195.614 199.667 195.676 199.577 195.718C199.488 195.76 199.39 195.781 199.291 195.78C199.192 195.779 199.094 195.755 199.006 195.71L190.641 191.166" stroke="#AECBFA" stroke-width="1.11" stroke-miterlimit="10"/>
<path d="M57.2859 147.818L49.0601 152.596L49.904 149.556L57.2859 147.818Z" fill="#8AB4F8"/>
</svg>
