<?xml version="1.0" encoding="utf-8"?>
<!-- Uploaded to: SVG Repo, www.svgrepo.com, Generator: SVG Repo Mixer Tools -->
<svg width="800px" height="800px" viewBox="-66.25 0 448.532 448.532" xmlns="http://www.w3.org/2000/svg"><defs><style>.a{fill:#ffffff;}.b{fill:#7a7473;}.c{fill:#3f88c9;}.d{fill:#211715;}.e{fill:#bdbdbd;}</style></defs><path class="a" d="M161.01,87.534a7.885,7.885,0,0,1,6.31-1.846,7.445,7.445,0,0,1,5.353,3.559,10.523,10.523,0,0,1,1.1,4.235,31.545,31.545,0,0,1-3.216,16.723,20.064,20.064,0,0,1-5.185,6.805c-2.118,1.689-4.248,2.5-7.764.716a47.112,47.112,0,0,1-2.053,7.416c-1.663,4.447-10.375,19-21.7,25.928.015,3.576.207,7.3,1.4,10.248,2.559,6.339,16.388,14.315,17.34,14.732,0,0-5.366,34.445-45.34,34.445S65.817,176.05,65.817,176.05c.952-.417,12.608-7.282,15.177-13.621,1.206-2.974,1.388-6.715,1.395-10.283a44.625,44.625,0,0,1-14.2-11.52A53.426,53.426,0,0,1,57.42,118.909c-3.26,1.3-5.692-.379-7.6-1.9a20.064,20.064,0,0,1-5.185-6.805A31.556,31.556,0,0,1,41.42,93.482a10.524,10.524,0,0,1,1.1-4.235,7.445,7.445,0,0,1,5.353-3.559,7.885,7.885,0,0,1,6.31,1.846s.176-44.119,55.729-44.119C165.247,43.415,161.01,87.534,161.01,87.534Z"/><path class="b" d="M54.093,87.21c1.709,1.758,2.661-1.844,3.307-3.252,1.029-2.241,2.535-5.511,3.637-7.715.607-1.214,1.483-2.992,2.019-4.231q.854-1.968,1.809-3.879a78.931,78.931,0,0,1,4.259-7.467,9.914,9.914,0,0,1,2.725-3.09c3.344-2.194,7.932-.423,12.01-.73,4.53-.341,8.283-3.265,12.46-4.93,5.808-2.315,14.716-2.924,20.344-.253,2.848.147,5.5.021,8.084,0a51.157,51.157,0,0,1,8.652.386,27.516,27.516,0,0,1,18.242,13.428,65.241,65.241,0,0,1,6.577,14.554,50.9,50.9,0,0,1,1.23,5.524c.1.626.169,1.266.227,1.895.04.427.467.579,1.473-.1l-.138.188a7.887,7.887,0,0,1,6.269-1.852c3.941-12.947,2.876-29.362-.955-39.15-2.635-6.733-6.672-14.5-14.85-18.992L143.966,20.9c-3.37-6.845-10.413-12.7-19.672-16.012-9.7-3.466-37.988-4.054-47.5,4.168L67.035,15.73C56.145,20.7,48.464,32.6,45.191,44.853c-3.372,12.632-3.4,30.941,1.345,41.182a7.806,7.806,0,0,1,7.65,1.5Z"/><path class="a" d="M115.411,180.925c-1.105-1.182-2.013-2.091-2.713-2.78-3.326,0-5.8.012-8.926.018-.866.855-2.045,2.039-3.517,3.656-3.453,3.789-7.5,7.608-10.355,11.022a103.346,103.346,0,0,1-15.83-24.948c5.087,20.169,13.266,41.617,19.833,61.064,5.313,15.733,9.453,26.179,15.712,41.7l14.082-41.7c7.155-21.188,16.223-44.751,21.12-66.449-5.267,12.307-9.94,20.492-18.227,30.333-2.858-3.414-6.9-7.233-10.355-11.022Q115.806,181.348,115.411,180.925Z"/><path class="c" d="M97.961,214.9c1.3-9.967,2.356-17.819,2.356-18.184a13.261,13.261,0,0,0-.519-3.181c-.121-.484-.242-.951-.345-1.435-.643-2.752-1.053-4.664-1.636-7.689.83-.864,1.649-1.731,2.438-2.6,1.473-1.617,2.651-2.8,3.517-3.66,2.641,0,4.815-.007,7.428-.015l1.5,0c.868.859,2.054,2.05,3.538,3.68,1.019,1.118,2.089,2.239,3.166,3.351-.487,1.968-.946,3.97-1.691,6.26a19.383,19.383,0,0,0-1.245,5.636c-.017.982,2.781,19.46,5.435,37.211l-12.285,36.38c-5.6-13.879-9.5-23.7-14.062-36.873C96.329,227.5,97.188,220.826,97.961,214.9Z"/><path class="d" d="M131.734,152.523c.074,4.057.3,8.6,2.557,12.124a28.409,28.409,0,0,0,6.089,6.428,78.125,78.125,0,0,0,7.341,5.3,33.946,33.946,0,0,0,4.12,2.446,2.473,2.473,0,0,0,3.284-.861,2.42,2.42,0,0,0-.861-3.284,31.6,31.6,0,0,1-3.719-2.19,70.662,70.662,0,0,1-6.306-4.432,43.059,43.059,0,0,1-3.313-2.916,20.8,20.8,0,0,1-2.224-2.52,11.192,11.192,0,0,1-.924-1.575c.261.549-.19-.524-.2-.566a16.492,16.492,0,0,1-.442-1.59,30.97,30.97,0,0,1-.6-6.368c-.056-3.085-4.856-3.095-4.8,0Z"/><path class="d" d="M66.606,178.825a28.942,28.942,0,0,0,3.966-2.426,58.694,58.694,0,0,0,6.783-5.248,21.948,21.948,0,0,0,5.245-6.493c1.77-3.735,1.919-8.042,1.939-12.1.014-3.089-4.786-3.093-4.8,0a44.411,44.411,0,0,1-.291,5.766,15.286,15.286,0,0,1-1.22,4.371,20.185,20.185,0,0,1-4.732,5.483,51.907,51.907,0,0,1-5.764,4.36,26.965,26.965,0,0,1-3.549,2.147,2.419,2.419,0,0,0-.861,3.284,2.458,2.458,0,0,0,3.284.861Z"/><path class="d" d="M146.038,19.686c-4.945-9.87-15.785-16.581-26.466-18.438a85.475,85.475,0,0,0-30.528.257C84.1,2.466,79,4.042,75.1,7.356a2.421,2.421,0,0,0,0,3.394,2.45,2.45,0,0,0,3.394,0c.036-.03.585-.476.187-.168.176-.136.359-.265.541-.391.38-.262.771-.506,1.171-.737A24.176,24.176,0,0,1,82.723,8.3a38.034,38.034,0,0,1,6.134-1.857A71.689,71.689,0,0,1,103.2,4.9c8.86-.163,17.533.328,25.516,4.522,5.5,2.892,10.363,7.069,13.178,12.689,1.384,2.762,5.526.335,4.145-2.422Z"/><path class="d" d="M155.355,114.733a25.433,25.433,0,0,1-1.208,6.408c-.236.788-.5,1.569-.76,2.347-.092.27-.18.54-.275.808-.036.1-.28.686-.117.3.171-.4-.114.244-.149.321-.093.2-.189.4-.286.6-.252.517-.518,1.027-.792,1.533-.617,1.138-1.275,2.253-1.962,3.35a64.047,64.047,0,0,1-13.4,15.63,28.451,28.451,0,0,1-10.052,5.531c-2.965.847-1.7,5.48,1.276,4.628,7.6-2.171,13.929-7.639,19.017-13.5a65.338,65.338,0,0,0,10.44-15.56,33.8,33.8,0,0,0,3.068-12.4c.1-3.089-4.695-3.086-4.8,0Z"/><path class="d" d="M54.121,115.013c2.838,15.2,10.956,29.808,24.563,37.862a33.091,33.091,0,0,0,11.8,4.316,2.477,2.477,0,0,0,2.952-1.676,2.419,2.419,0,0,0-1.676-2.953c-14.5-2.2-25.594-15.335-30.289-28.531a67.85,67.85,0,0,1-2.724-10.294,2.421,2.421,0,0,0-2.952-1.676,2.45,2.45,0,0,0-1.676,2.952Z"/><path class="d" d="M55.883,85.837A10.4,10.4,0,0,0,44.674,84.2c-3.947,1.814-5.39,5.634-5.688,9.721-.578,7.915,1.814,16.7,7.06,22.764,2.816,3.255,6.812,5.829,11.246,4.8,3.008-.7,1.735-5.328-1.276-4.628-2.983.694-5.934-2.512-7.456-4.7a28.82,28.82,0,0,1-4.85-16.473c.025-1.766.044-3.815.976-5.375,1.576-2.637,5.538-3,7.8-1.075a2.463,2.463,0,0,0,3.394,0,2.421,2.421,0,0,0,0-3.394Z"/><path class="d" d="M65.823,13.657C56.159,18.143,49.415,27.271,45.39,36.885c-4.08,9.744-5.377,20.688-4.913,31.189a55.088,55.088,0,0,0,2.983,16.78,2.465,2.465,0,0,0,2.952,1.676,2.419,2.419,0,0,0,1.676-2.952c-3.4-9.123-3.433-19.568-2.294-29.12,1.134-9.514,4.325-18.913,10.19-26.578A33.166,33.166,0,0,1,68.246,17.8a2.42,2.42,0,0,0,.861-3.284,2.455,2.455,0,0,0-3.284-.861Z"/><path class="d" d="M115.875,50.416a26.315,26.315,0,0,0-17-1.809,34.011,34.011,0,0,0-7.842,3.179c-2.248,1.156-4.6,2.436-7.169,2.66-2.691.234-5.367-.475-8.059-.378a9.547,9.547,0,0,0-7.432,3.538c-3.727,4.683-5.96,10.364-8.562,15.688-1.193,2.441-2.121,5-3.35,7.422-.562,1.108-1.228,2.142-1.718,3.284-.207.482-.412.962-.664,1.423.019-.034-.254.391-.25.4-.324-.671,1.963-.313,1.966-.31-2.266-2.094-5.669,1.293-3.394,3.394,2.065,1.907,4.586,1.181,5.883-1.172.39-.709.635-1.486,1-2.206.634-1.253,1.375-2.438,1.961-3.719,2.276-4.977,4.336-10.067,6.958-14.881q1.028-1.887,2.157-3.717a12.62,12.62,0,0,1,2.527-3.431c1.875-1.475,4.754-.889,6.93-.684a19.047,19.047,0,0,0,8.242-.715,74.56,74.56,0,0,0,7.6-3.564,21.111,21.111,0,0,1,17.8-.258,2.47,2.47,0,0,0,3.284-.861,2.419,2.419,0,0,0-.861-3.283Z"/><path class="d" d="M94.606,38.847a25.351,25.351,0,0,1,18.346,2.929,21.061,21.061,0,0,1,5.882,4.854,35.147,35.147,0,0,1,4.051,6.654c1.4,2.755,5.542.328,4.145-2.422-2.844-5.6-6.4-10.334-11.993-13.419A30.4,30.4,0,0,0,93.33,34.218c-3.011.684-1.736,5.313,1.276,4.629Z"/><path class="d" d="M133.419,53.538a23.893,23.893,0,0,1,14.043,9.915,56.639,56.639,0,0,1,8.625,17.9c.3,1.14.576,2.288.8,3.446.209,1.077.215,2.233.473,3.291.6,2.447,3.239,2.424,5,1.331,2.618-1.628.211-5.782-2.422-4.145q-1.157.57,1.055.364l.861.861q.286.956.124,0-.069-.557-.146-1.112-.133-.939-.315-1.868c-.24-1.235-.535-2.459-.861-3.674a46.633,46.633,0,0,0-2.1-5.984,71.431,71.431,0,0,0-5.824-11.171c-4.309-6.655-10.166-11.915-18.037-13.783-3-.713-4.285,3.915-1.276,4.629Z"/><path class="d" d="M162.707,89.231a5.37,5.37,0,0,1,7.712.923c.961,1.45,1.008,3.406,1.058,5.087a27.953,27.953,0,0,1-.389,5.72,28.827,28.827,0,0,1-4,10.512c-1.63,2.541-4.438,5.768-7.81,4.869-2.988-.8-4.263,3.833-1.276,4.629,8.449,2.251,14.09-7.151,16.424-13.818a33.466,33.466,0,0,0,1.849-11.912c-.116-4.091-1-8.027-4.609-10.416a10.358,10.358,0,0,0-12.355,1.012,2.421,2.421,0,0,0,0,3.394,2.449,2.449,0,0,0,3.394,0Z"/><path class="d" d="M150.263,29.612c6.622,3.7,10.747,10.064,13.511,16.962,2.912,7.268,3.782,15.292,3.562,23.072a60.2,60.2,0,0,1-2.114,14.528c-.833,2.979,3.8,4.251,4.628,1.276a69.226,69.226,0,0,0,1.66-27.588,51.965,51.965,0,0,0-8.051-22.286,31.811,31.811,0,0,0-10.774-10.108c-2.7-1.509-5.122,2.635-2.422,4.144Z"/><path class="e" d="M2.545,237.225c.643,13.744,1.948,24.467,3.618,38.294,1.688,10.612,2.4,17.816,7.771,27.379,3.447,6.139,9.63,10.95,16.663,10.622a24.184,24.184,0,0,0,4.221-.787l.5,8.268a187.556,187.556,0,0,1-1.74,25.093c-2.853,22.758-6.409,51.54-8.26,68.462-.433,3.954-.3,8.074,3.185,9.7a11.06,11.06,0,0,0,3.111.741,319.943,319.943,0,0,0,36.222,1.666c7.817,0,18.7-2,25.644-7.568a31.8,31.8,0,0,0,8.06-9.8c2.884-5.345,4.333-10.887,6.411-17.447,1-3.146,3.033-10.22,3.515-11.59l.563-1.6.77,4.566c1.16,6.877,3.858,17.5,8.3,25.333,4.157,7.334,8.881,13.517,16.889,16.148s27.7,1.334,40.741,0c5-.511,11.29-2.447,13.481-4.481,1.718-1.6,1.852-3.815,1.63-5.741-4.518-34.148-10.074-87.7-11.185-108.37,0-11.949,1.445-28.823,2.37-41.636,1.245,1.988,2,3.191,2,3.191,11.187,17.833,25.56,33.849,32.883,39.546,9,7,12.84,7.544,17.608,6.923a26.113,26.113,0,0,0,12.016-5.1C264.436,297.476,289.2,263.21,293.568,255c-4.556-4.667-27.666-22.24-30.741-24.519-5.721,5.889-13.249,16.3-21.355,24.785a1,1,0,0,1-1.5-.055A208.743,208.743,0,0,1,222.311,229c-7.493-12.964-13.19-20.544-21.429-32.856-3.854-5.761-8.067-8.531-13.5-12.1-9.9-6.5-29.6-13.826-39.99-17.8-1.031-.76-2.034-1.44-2.982-2.019-4.973,21.219-13.753,44.1-20.718,64.726l-14.082,41.7c-6.259-15.521-10.4-25.967-15.712-41.7-7-20.715-15.819-43.7-20.786-64.993a56.714,56.714,0,0,0-8.964,7.013l-3,1.282C46.719,178.438,17.469,188.062,8.565,201c-4.743,6.894-6.7,18.667-6.02,36.225"/><path class="a" d="M126.59,192.841a103.694,103.694,0,0,0,16.032-25.385c-1.988-3.835-3.325-6.321-6.708-9.431-3.869,5.2-12.7,11.695-23.288,15.954a6.017,6.017,0,0,0-2.058,1.163c-.253.472.24.887.472,1.258.364.583,2.152,2.079,5.195,5.419C119.688,185.608,123.732,189.427,126.59,192.841Z"/><path class="a" d="M89.9,192.841a103.694,103.694,0,0,1-16.032-25.385c1.988-3.835,3.325-6.321,6.708-9.431,3.869,5.2,12.7,11.695,23.288,15.954a6.017,6.017,0,0,1,2.058,1.163c.253.472-.24.887-.472,1.258-.364.583-2.152,2.079-5.2,5.419C96.8,185.608,92.758,189.427,89.9,192.841Z"/><path class="d" d="M101.052,198.974c4.979,0,9.958-.11,14.938-.112a2.4,2.4,0,1,0,0-4.8c-4.98,0-9.959.11-14.938.112a2.4,2.4,0,0,0,0,4.8Z"/><path class="d" d="M95.738,186.259q.645,3.254,1.4,6.483a14.642,14.642,0,0,1,.761,4.194c-.1,1.486-.372,2.978-.565,4.453-.888,6.8-1.789,13.592-2.664,20.391q-.9,7.016-1.766,14.037a2.413,2.413,0,0,0,2.4,2.4,2.459,2.459,0,0,0,2.4-2.4c.993-8.132,2.046-16.256,3.11-24.379.626-4.773,1.475-9.574,1.87-14.373a13.9,13.9,0,0,0-.632-4.4c-.63-2.543-1.176-5.108-1.686-7.678a2.4,2.4,0,0,0-4.628,1.276Z"/><path class="d" d="M112.412,175.745q-4.428.007-8.858.019a2.4,2.4,0,1,0,0,4.8q4.43-.009,8.858-.019a2.4,2.4,0,0,0,0-4.8Z"/><path class="d" d="M124.242,233.824q-1.742-11.648-3.483-23.3-.642-4.329-1.269-8.662-.22-1.543-.433-3.089c-.026-.185.056.44-.007-.054-.019-.149-.039-.3-.058-.446-.033-.262-.072-.524-.094-.787a9.451,9.451,0,0,1,.46-3.286c.584-2.112,1.306-4.176,1.842-6.3.754-3-3.874-4.274-4.629-1.276-.854,3.392-2.64,7-2.5,10.557.058,1.483.371,2.983.578,4.451.9,6.418,1.877,12.826,2.836,19.236q1.065,7.116,2.131,14.231a2.416,2.416,0,0,0,2.952,1.676,2.46,2.46,0,0,0,1.676-2.952Z"/><path class="d" d="M128.287,194.538A109.89,109.89,0,0,0,141.17,175.8q1.317-2.462,2.517-4.982a17.543,17.543,0,0,0,1.25-2.722c.327-1.192-.452-2.266-.985-3.271a31.57,31.57,0,0,0-6.341-8.5,2.447,2.447,0,0,0-3.77.486c-4.036,5.352-10.941,9.625-17.1,12.695-2,1-4.1,1.765-6.1,2.736-2.094,1.013-3.318,2.982-1.837,5.139,1.562,2.275,3.872,4.108,5.733,6.132,3.412,3.709,7.1,7.169,10.355,11.022a2.42,2.42,0,0,0,3.394,0,2.451,2.451,0,0,0,0-3.394c-3.058-3.623-6.519-6.879-9.739-10.353-1.385-1.494-2.771-2.979-4.218-4.413-.39-.386-.774-.779-1.165-1.165-.155-.154-.5-.661-.009.042-.059-.085-.38-.631-.344-.474v1.276l.071-.276-.618,1.059c-.243.284.254-.173.435-.269s.374-.192.564-.278c.809-.365,1.645-.678,2.459-1.032q2.146-.934,4.23-2a70.085,70.085,0,0,0,7.4-4.381,44.09,44.09,0,0,0,10.635-9.639l-3.769.486a31.26,31.26,0,0,1,6.333,8.945v-2.422a110.157,110.157,0,0,1-15.657,24.9,2.465,2.465,0,0,0,0,3.394A2.42,2.42,0,0,0,128.287,194.538Z"/><path class="d" d="M91.6,191.144a110.157,110.157,0,0,1-15.657-24.9v2.422a31.254,31.254,0,0,1,6.333-8.945l-3.769-.486a44.076,44.076,0,0,0,10.636,9.639,70.14,70.14,0,0,0,7.4,4.381q1.981,1.018,4.023,1.914c.813.358,1.64.683,2.455,1.037.264.115.519.228.775.364.163.086.722.606.435.269l-.617-1.059.07.276v-1.276c.036-.157-.285.389-.344.474.495-.7.146-.2-.009-.042-.391.386-.775.779-1.165,1.165-1.446,1.434-2.833,2.919-4.217,4.413-3.221,3.474-6.682,6.73-9.74,10.353a2.465,2.465,0,0,0,0,3.394,2.42,2.42,0,0,0,3.394,0c2.861-3.389,6.078-6.456,9.115-9.684,1.408-1.5,2.783-3.022,4.235-4.477.7-.705,1.462-1.375,2.1-2.141,1.372-1.644,1.987-3.832-.03-5.3-1.654-1.205-3.824-1.786-5.673-2.652a69.9,69.9,0,0,1-10.911-6.338,37.544,37.544,0,0,1-7.785-7.131,2.447,2.447,0,0,0-3.77-.486,31.582,31.582,0,0,0-6.34,8.5c-.487.918-1.174,1.872-1.028,2.952a10.658,10.658,0,0,0,1.2,2.85q1.248,2.614,2.609,5.173A109.947,109.947,0,0,0,88.2,194.538a2.42,2.42,0,0,0,3.394,0A2.451,2.451,0,0,0,91.6,191.144Z"/><path class="d" d="M125.246,286.47c.267.241.482.533.743.775q-.365-.482-.15-.185.07.1.135.2c.075.117.144.237.209.359.1.192.207.609-.024-.106.045.141.1.277.149.418a5.448,5.448,0,0,1,.184.836l-.086-.638a6.056,6.056,0,0,1,0,1.516l.086-.638a6.837,6.837,0,0,1-.173.84c-.037.132-.078.262-.123.391-.02.056-.041.111-.061.167-.129.362.1-.273.128-.293-.127.085-.245.5-.33.642-.057.093-.118.182-.178.273-.2.311.476-.57.127-.166-.091.106-.188.208-.289.305-.083.079-.524.438-.156.154s-.088.049-.191.113c-.135.083-.275.161-.417.232-.027.014-.211.132-.24.115,0,0,.594-.229.277-.119-.153.053-.3.109-.458.156a6.941,6.941,0,0,1-1,.215l.638-.086a6.983,6.983,0,0,1-1.8,0l.638.086a6.291,6.291,0,0,1-.708-.142c-.131-.035-.26-.074-.387-.119-.193-.067-.484-.256.2.1-.2-.1-.407-.2-.6-.32-.087-.055-.452-.328-.067-.033s0-.022-.073-.087c-.1-.092-.19-.187-.28-.285-.143-.155-.421-.633-.032-.008-.151-.242-.317-.468-.448-.724-.1-.2-.143-.5.047.146-.043-.146-.108-.287-.152-.434a5.5,5.5,0,0,1-.165-.772l.086.638a5.627,5.627,0,0,1,0-1.329l-.085.638a5.854,5.854,0,0,1,.18-.869c.041-.143.092-.282.141-.422.13-.383-.288.606-.021.059a6.3,6.3,0,0,1,.455-.778c.344-.5-.3.336-.032.033.1-.114.2-.231.3-.341s.2-.19.3-.284c.286-.266-.551.386-.065.053a7.109,7.109,0,0,1,.758-.435c.357-.186-.629.235-.057.025.142-.052.286-.1.431-.141a6.832,6.832,0,0,1,.9-.191l-.638.086a6.378,6.378,0,0,1,1.6-.009L123.83,286a5.823,5.823,0,0,1,.616.119,4.193,4.193,0,0,0,.594.193,1.586,1.586,0,1,0-.211-.078c.085.043.168.088.25.136.1.058.193.122.289.186.339.227-.455-.375-.122-.089a2.552,2.552,0,0,0,1.7.7,2.4,2.4,0,0,0,1.7-4.1,7.458,7.458,0,0,0-4.915-1.836,8.505,8.505,0,0,0-4.584,1.309,8.137,8.137,0,0,0-3.42,8.746,7.867,7.867,0,0,0,3.082,4.3,7.676,7.676,0,0,0,4.278,1.221,7.949,7.949,0,0,0,7.2-4.01,8.413,8.413,0,0,0,.95-4.461,7.963,7.963,0,0,0-2.59-5.265,2.4,2.4,0,1,0-3.394,3.394Z"/><path class="d" d="M32.917,321c-.013,15.176-2.391,30.206-4.249,45.234-1.834,14.833-3.66,29.668-5.33,44.52-.361,3.212-.914,6.466-.312,9.684a8.287,8.287,0,0,0,7.1,6.762c3.466.579,7.056.726,10.559,1q4.773.367,9.557.573c3.579.15,7.161.227,10.743.265,3.732.04,7.489.162,11.212-.16,7.172-.621,14.658-2.393,20.727-6.418,6.789-4.5,11.037-11.5,13.8-19,2.4-6.517,4.23-13.262,6.228-19.91.266-.884.522-1.773.823-2.645,1.009-2.927-3.626-4.184-4.629-1.276-1.814,5.264-3.241,10.692-4.888,16.012-2.215,7.155-4.72,14.321-10.168,19.706-10.252,10.134-26.151,9.134-39.407,8.78-6.252-.167-12.49-.564-18.72-1.117a48,48,0,0,1-4.929-.5,3.629,3.629,0,0,1-2.933-1.818c-1.192-2.451-.431-5.771-.141-8.371,1.569-14.1,3.3-28.18,5.032-42.26q1.392-11.3,2.809-22.589c.907-7.244,1.667-14.5,1.854-21.8.04-1.555.056-3.11.058-4.664,0-3.089-4.8-3.094-4.8,0Z"/><path class="d" d="M183.168,256.112c-.663,12.038-1.826,24.044-2.474,36.084a139.628,139.628,0,0,0-.329,15.922c.243,3.988.55,7.972.877,11.954,1.892,23.03,4.359,46.021,7.044,68.971q1.026,8.781,2.13,17.552c.332,2.629.726,5.254,1.019,7.887a5.558,5.558,0,0,1-.336,3.312,3.058,3.058,0,0,1-.88.962,12.543,12.543,0,0,1-1.851,1.023c-5.292,2.443-11.286,2.737-17,3.2-6.068.493-12.158.847-18.247.849-4.84,0-9.772.038-14.295-1.374-5.29-1.651-9.4-5.541-12.5-10.014-7.207-10.41-10.138-22.661-12.047-34.994-2.243-14.5-3.69-29.092-5.472-43.647a202.569,202.569,0,0,1-1.766-22.114,181.027,181.027,0,0,1,.984-20.875q.475-4.6,1.158-9.172a2.479,2.479,0,0,0-1.676-2.953,2.418,2.418,0,0,0-2.952,1.677,184.363,184.363,0,0,0-1.69,43.593c.641,7.117,1.672,14.21,2.489,21.309.881,7.656,1.766,15.312,2.79,22.951,1.819,13.559,3.637,27.491,9.95,39.833,2.714,5.306,6.206,10.651,10.9,14.409a26.321,26.321,0,0,0,8.35,4.561,32.382,32.382,0,0,0,6.7,1.224,118.608,118.608,0,0,0,17.4.178c6.135-.282,12.331-.655,18.424-1.455a38.247,38.247,0,0,0,9.4-2.386c2.908-1.178,5.658-2.753,6.656-5.943.873-2.791.085-5.869-.278-8.686q-.551-4.275-1.076-8.553-4.46-36.2-7.768-72.537c-.8-8.9-1.9-17.92-1.7-26.864.29-12.767,1.461-25.5,2.372-38.233.182-2.549.355-5.1.5-7.652.17-3.087-4.631-3.077-4.8,0Z"/><path class="d" d="M142.169,163.326c-3.382,14.43-8.125,28.5-12.983,42.489q-7.433,21.4-14.678,42.863l-8.634,25.566c-.99,2.934,3.644,4.192,4.629,1.276q7.674-22.725,15.348-45.451c4.7-13.91,9.779-27.689,14.245-41.677,2.507-7.85,4.821-15.765,6.7-23.79.7-3-3.923-4.287-4.628-1.276Z"/><path class="d" d="M70.8,164.6c3.417,14.582,8.223,28.8,13.135,42.931,4.723,13.588,9.234,27.266,14.3,40.731,2.747,7.3,5.648,14.547,8.564,21.785a2.477,2.477,0,0,0,2.953,1.676,2.417,2.417,0,0,0,1.676-2.952c-5.266-13.069-10.371-26.186-14.9-39.532-4.766-14.052-9.883-27.988-14.4-42.125-2.506-7.85-4.82-15.765-6.7-23.79-.7-3.006-5.334-1.734-4.628,1.276Z"/><path class="d" d="M71.905,161.892A60.908,60.908,0,0,0,56.883,175.2a45.961,45.961,0,0,0-2.889,3.876c-.85,1.3-2.026,2.93-1.947,4.539.116,2.356,2.767,3.264,4.518,4.23l6.008,3.314-.485-3.77c-2.447,2.216-4.881,4.446-7.226,6.768a17.444,17.444,0,0,0-3.136,3.445,4.993,4.993,0,0,0,.025,4.823c2.618,5.413,5.752,10.637,8.721,15.863,6.225,10.957,12.7,21.77,19.273,32.524q5.523,9.041,11.124,18.035c1.626,2.619,5.78.211,4.144-2.423C82.431,246.166,69.889,225.84,58.5,204.875q-1.119-2.061-2.222-4.133a2.839,2.839,0,0,1-.373-.712c-.057-.334-.106.2.045-.128.3-.655,1.3-1.348,1.8-1.848,2.5-2.5,5.106-4.894,7.727-7.268A2.419,2.419,0,0,0,65,187.017l-4.506-2.486-2.146-1.183-1.073-.592c-.18-.1-.954-.726-.752-.35l.328,1.212c.016.381-.151.329.083-.086.1-.176.192-.356.291-.532q.353-.621.739-1.222c.51-.8,1.054-1.574,1.631-2.324a62.489,62.489,0,0,1,14.737-13.418c2.632-1.608.223-5.761-2.423-4.144Z"/><path class="d" d="M59.947,170.187c-.8.342-2.2.917-3.325,1.374q-2.05.831-4.106,1.646c-3.043,1.211-6.087,2.42-9.116,3.666A200.153,200.153,0,0,0,24.25,185.7c-5.413,2.928-10.883,6.308-15.123,10.83a30.9,30.9,0,0,0-7.205,14.36c-2.018,8.577-2.1,17.58-1.777,26.339.115,3.079,4.916,3.094,4.8,0-.283-7.566-.29-15.295,1.119-22.761a41,41,0,0,1,2.3-8.1,24.883,24.883,0,0,1,3.278-5.467c3.765-4.432,8.79-7.594,13.834-10.4a174.589,174.589,0,0,1,18.083-8.534c6.249-2.594,12.585-4.974,18.807-7.63a2.414,2.414,0,0,0,.861-3.284,2.463,2.463,0,0,0-3.283-.861Z"/><path class="d" d="M143.091,166.235q1.02.619,2,1.3.541.376,1.072.767c.182.135.364.27.544.407.082.061.163.123.244.185.346.263-.293-.231-.058-.045q2.262,1.788,4.379,3.742a2.4,2.4,0,0,0,3.394-3.394,57.674,57.674,0,0,0-9.151-7.109,2.4,2.4,0,1,0-2.423,4.144Z"/><path class="d" d="M32.807,426.6q-.914,9.767-1.84,19.531a2.418,2.418,0,0,0,2.4,2.4,2.451,2.451,0,0,0,2.4-2.4q.915-9.765,1.84-19.531a2.418,2.418,0,0,0-2.4-2.4,2.451,2.451,0,0,0-2.4,2.4Z"/><path class="d" d="M188.8,443.366q-.792-9.066-1.59-18.133a2.463,2.463,0,0,0-2.4-2.4,2.418,2.418,0,0,0-2.4,2.4q.792,9.068,1.59,18.133a2.463,2.463,0,0,0,2.4,2.4,2.418,2.418,0,0,0,2.4-2.4Z"/><path class="d" d="M46.42,241.136a38.651,38.651,0,0,0,6.4,12.124,2.4,2.4,0,0,0,3.394,0,2.475,2.475,0,0,0,0-3.395c-.2-.248.027-.022.072.094a1.539,1.539,0,0,0-.2-.271c-.154-.209-.3-.421-.453-.634-.274-.4-.537-.8-.793-1.2-.568-.9-1.1-1.832-1.59-2.778q-.352-.677-.679-1.364a8.922,8.922,0,0,1-.657-1.453c.044.168.136.33.029.064-.046-.112-.092-.225-.136-.337-.089-.222-.175-.444-.258-.668q-.27-.72-.5-1.455a2.4,2.4,0,0,0-4.628,1.276Z"/><path class="a" d="M281.451,239.727l-6.5.024c6.16,4.78,13.046,10.234,16.728,13.488.14-.224.221-.35.221-.35,1.785-2.758,3.94-5.944,5.343-8.285a1.31,1.31,0,0,0-.25-1.655,56.846,56.846,0,0,0-6.2-4.912c0,.746,0,1.3,0,1.644C289.47,239.693,286.178,239.709,281.451,239.727Z"/><path class="a" d="M283.05,210.684a25.615,25.615,0,0,1-4.67-1.882,8.048,8.048,0,0,1-3.094-2.6,4.926,4.926,0,0,1-.549-4.254c.753-2.075,2.595-3.2,5.182-3.062l-1.01-.273a9.475,9.475,0,0,1-2.686-1.218,4.173,4.173,0,0,1,1.64-7.212,15.936,15.936,0,0,1,5.435-.134c7.879.829,11.512,1.79,20.05,3.4-4.207-2.214-9.88-3.761-13.986-5.865a4.99,4.99,0,0,1-2.8-4.642,4.314,4.314,0,0,1,3.866-3.864c6-.478,16.744,2.912,19.763,5.575l.523.461.22.334a19.9,19.9,0,0,1,2.71,10.37,150.665,150.665,0,0,1-2.02,24.28,18.34,18.34,0,0,1-2.39,7.16,19.75,19.75,0,0,1-4.7,4.46q-4.245,3.225-8.49,6.44c-.56.429-1.359,1.348-2.188,2.128-.948-.753-1.994-1.535-3.054-2.232,0-2.609.008-7.591.012-14.294-.307-.093-.61-.2-.912-.31-3.155-1.175-5.8-1.814-7.813-4.237-.883-1.063-1.765-3.408-1.316-4.751.638-1.909,2.9-3.188,5.712-2.837C285.332,211.329,284.183,211.031,283.05,210.684Z"/><path class="d" d="M293.973,254.1c1.05-1.621,2.12-3.229,3.173-4.848.5-.764.99-1.529,1.473-2.3a5.936,5.936,0,0,0,1.21-2.923c.064-2.053-1.64-3.256-3.045-4.436a54.133,54.133,0,0,0-4.853-3.68,2.414,2.414,0,0,0-3.283.861,2.455,2.455,0,0,0,.861,3.283,38.685,38.685,0,0,1,3.7,2.779q.774.645,1.529,1.313c.087.077.456.512.559.5-.191.026-.213-.7-.213-.716,0-.267.19-.681-.022-.355-1.749,2.7-3.485,5.405-5.233,8.1a2.42,2.42,0,0,0,.861,3.284,2.453,2.453,0,0,0,3.283-.861Z"/><path class="d" d="M143.9,167.463c8.549,3.337,17.17,6.48,25.588,10.143a143.031,143.031,0,0,1,13.249,6.431,58.415,58.415,0,0,1,12.185,8.641,43.214,43.214,0,0,1,5.457,7q2.636,3.9,5.305,7.783c3.232,4.725,6.445,9.465,9.486,14.316,3.416,5.448,6.529,11.077,9.949,16.524a197,197,0,0,0,11.508,16.525c1.1,1.4,2.1,3.1,4.088,3.147,1.9.043,3.115-1.69,4.273-2.952,2.507-2.734,4.909-5.562,7.277-8.417,4.025-4.851,7.88-9.891,12.264-14.43l-2.908.375c8.529,6.329,16.736,12.68,24.964,19.49a68.987,68.987,0,0,1,5.291,4.654l-.376-2.909c-3.321,6.2-7.715,11.948-11.878,17.6a307.43,307.43,0,0,1-19.336,23.908,123.863,123.863,0,0,1-9.524,9.607c-3.85,3.417-8.319,6.211-13.659,6.888a17.592,17.592,0,0,1-2.224.141c-.408,0-.812-.026-1.219-.054-.083-.006-.761-.1-.191-.016q-.429-.066-.852-.16a17.219,17.219,0,0,1-5.4-2.3,59.782,59.782,0,0,1-11.5-9.184,190.373,190.373,0,0,1-26.621-33.755c-1.641-2.608-5.8-.2-4.145,2.423a204.048,204.048,0,0,0,25.132,32.444,80.444,80.444,0,0,0,11.2,9.9c3.9,2.794,8.271,5.353,13.193,5.5,10.712.318,18.942-7.213,25.851-14.428a277.561,277.561,0,0,0,20.625-24.716c3.19-4.219,6.3-8.5,9.294-12.863a92.9,92.9,0,0,0,5.4-8.5,2.467,2.467,0,0,0-.375-2.908,124.816,124.816,0,0,0-11.677-9.811q-7.407-5.874-14.936-11.593c-1.533-1.169-3.065-2.341-4.614-3.49a2.406,2.406,0,0,0-2.908.375c-3.532,3.656-6.7,7.66-9.919,11.586-1.858,2.263-3.723,4.522-5.629,6.746q-1.455,1.7-2.946,3.36a26.686,26.686,0,0,1-3.09,3.273l1.059-.617c1.265-.5,1.238.919.79.041a6.065,6.065,0,0,0-.691-.863q-.572-.721-1.134-1.451-1.24-1.617-2.435-3.27-2.352-3.24-4.564-6.578-4.249-6.392-8.085-13.046c-4.9-8.451-10.3-16.554-15.82-24.613-2.848-4.162-5.451-8.659-8.8-12.44a50.41,50.41,0,0,0-10.26-8.277c-6.754-4.455-14.2-7.731-21.638-10.855-7.529-3.161-15.189-5.978-22.794-8.947a2.418,2.418,0,0,0-2.952,1.677,2.455,2.455,0,0,0,1.676,2.952Z"/><path class="a" d="M290.729,55.357c-14.638,0-129.926.376-137.423.373.009,17.671.481,173.846.486,184.328,11.98,0,127.289-.287,137-.377C290.821,230.423,290.883,71.176,290.729,55.357Z"/><path class="d" d="M290.729,52.957q-9.255,0-18.511.036-16.106.041-32.21.089-18.311.052-36.621.108-15.875.048-31.748.094-8.794.026-17.588.045h-.745a2.435,2.435,0,0,0-2.4,2.4q.006,12.024.051,24.048.055,21.573.116,43.148l.138,49.321q.061,21.466.12,42.931.033,11.939.06,23.878c0,.334,0,.668,0,1a2.436,2.436,0,0,0,2.4,2.4q8.629,0,17.258-.028,15.774-.033,31.546-.073,18.264-.045,36.527-.1,16.1-.045,32.2-.1c6.189-.021,12.378-.034,18.567-.076l.9-.007a2.437,2.437,0,0,0,2.4-2.4q.029-10.227.018-20.454.011-20.79.014-41.582,0-24.827,0-49.655,0-22.378-.025-44.758c-.01-8.829-.006-17.659-.062-26.488q0-.693-.011-1.387c-.029-3.087-4.829-3.094-4.8,0,.075,7.85.057,15.7.067,23.551q.029,21.585.03,43.171.006,24.872,0,49.745,0,21.672-.013,43.345-.006,11.793-.018,23.587,0,.462,0,.925l2.4-2.4c-5.4.049-10.794.053-16.19.072q-15.5.054-31,.095-18.248.052-36.5.1-16.343.041-32.686.077-9.784.021-19.569.035h-1.067l2.4,2.4q-.006-10.33-.049-20.661-.057-20.7-.115-41.4-.071-24.611-.139-49.223-.061-22.236-.12-44.474-.034-13.53-.062-27.062,0-.753,0-1.507l-2.4,2.4c5.049,0,10.1-.022,15.147-.037q15.238-.042,30.476-.089l36.519-.109q16.638-.048,33.276-.093,10.374-.027,20.747-.044h1.258C293.818,57.758,293.823,52.958,290.729,52.957Z"/><path class="a" d="M310.186,184.648v0c-3.02-2.663-13.767-6.051-19.762-5.574a4.314,4.314,0,0,0-3.866,3.864,4.99,4.99,0,0,0,2.8,4.642c4.106,2.1,9.779,3.651,13.986,5.865-8.538-1.609-12.171-2.57-20.05-3.4a15.936,15.936,0,0,0-5.435.134,4.173,4.173,0,0,0-1.64,7.212,9.475,9.475,0,0,0,2.686,1.218l1.01.273c-2.587-.133-4.429.987-5.182,3.062a4.926,4.926,0,0,0,.549,4.254,8.048,8.048,0,0,0,3.094,2.6,34.9,34.9,0,0,0,8.1,2.818c-2.814-.352-5.074.927-5.712,2.836-.449,1.343.433,3.688,1.316,4.751,2.013,2.423,4.658,3.062,7.813,4.237,1.811.674,3.7,1.091,5.547,1.637h0Z"/><path class="d" d="M311.884,182.95a23.776,23.776,0,0,0-7.956-3.992,43.879,43.879,0,0,0-10.616-2.262c-2.945-.228-5.915.123-7.85,2.627-2.463,3.187-1.2,7.575,1.871,9.8a23.41,23.41,0,0,0,5.153,2.432c2.392.953,4.823,1.805,7.2,2.793a2.413,2.413,0,0,0,2.952-1.676,2.46,2.46,0,0,0-1.676-2.952c-3.276-1.361-6.7-2.41-9.888-3.968a9.062,9.062,0,0,1-1.091-.607c-.034-.023-.273-.212-.066-.045.24.194-.117-.113-.164-.162-.075-.08-.479-.541-.344-.354a2.135,2.135,0,0,1-.173-2.35c.225-.293.294-.3.8-.592.4-.225-.221.04.175-.071a2.576,2.576,0,0,0,.549-.145c.242-.146-.651.006-.216.034.124.007.26-.017.384-.022.268-.012.536-.016.8-.015.675,0,1.35.044,2.022.108a39.235,39.235,0,0,1,8.124,1.8,34.366,34.366,0,0,1,3.948,1.5c.569.266,1.131.549,1.673.866.25.146.493.3.734.46.082.055.161.114.242.171.292.209-.419-.348.009.018a2.464,2.464,0,0,0,3.394,0,2.421,2.421,0,0,0,0-3.394Z"/><path class="d" d="M302.472,190.843c-3.826-.738-7.639-1.554-11.486-2.181-4.013-.653-8.412-1.583-12.478-1.041a6.713,6.713,0,0,0-5.81,8.627c1.413,4.479,6.923,5.039,10.814,6.092l15.723,4.254c2.986.808,4.26-3.821,1.276-4.628l-15.246-4.126a58.711,58.711,0,0,1-6.536-1.808c-1.1-.442-2.17-1.547-1.3-2.783,1-1.427,3.605-1,5.05-.881,2.043.162,4.086.436,6.112.746,4.227.645,8.411,1.548,12.608,2.357a2.463,2.463,0,0,0,2.953-1.676,2.423,2.423,0,0,0-1.677-2.952Z"/><path class="d" d="M279.916,196.481a7.328,7.328,0,0,0-7.493,4.824c-1.272,3.722.979,7.319,4.107,9.207,3.287,1.985,7.116,2.867,10.8,3.8q5.982,1.511,11.967,3.014c3,.756,4.274-3.872,1.276-4.628q-4.668-1.178-9.336-2.351c-2.96-.746-5.975-1.393-8.859-2.4-1.843-.646-4.861-1.676-5.412-3.829-.528-2.062,1.219-2.879,2.953-2.831,3.09.084,3.088-4.716,0-4.8Z"/><path class="d" d="M286.485,209.219a8.2,8.2,0,0,0-6.227,1.838,5.889,5.889,0,0,0-1.806,5.9,9.221,9.221,0,0,0,3.186,5.178,18.843,18.843,0,0,0,5.727,2.94c2.46.882,4.936,1.588,7.442,2.319a2.4,2.4,0,1,0,1.276-4.629c-2.4-.7-4.765-1.364-7.117-2.2-.5-.176-.989-.352-1.478-.542-.136-.052-.271-.1-.4-.16q.361.158-.019-.008c-.192-.088-.385-.175-.574-.268a11.565,11.565,0,0,1-1.267-.723c-.116-.077-.23-.157-.343-.239q.269.213.07.051c-.186-.169-.381-.327-.561-.5-.159-.156-.3-.325-.458-.486-.207-.246-.2-.232.023.045-.07-.1-.136-.2-.2-.307-.1-.169-.187-.347-.285-.519q-.171-.372-.013,0c-.053-.133-.1-.267-.149-.4-.068-.2-.129-.407-.181-.614-.033-.136-.062-.272-.087-.41q.051.453.015.04c0-.191.09-.653-.052-.1.055-.218.346-.714.038-.23.092-.145.176-.3.267-.445-.321.518.1-.056.208-.176.317-.335-.354.17.1-.071.225-.121.436-.26.672-.363-.391.171,0,.022.181-.03.075-.021.788-.164.51-.124s.483-.021.568-.021a8.476,8.476,0,0,1,.942.058,2.406,2.406,0,0,0,2.4-2.4,2.468,2.468,0,0,0-2.4-2.4Z"/><path class="d" d="M308.857,186.653a17.736,17.736,0,0,1,2.376,9.81c-.047,4.156-.235,8.312-.587,12.453a104.406,104.406,0,0,1-1.615,12,13.812,13.812,0,0,1-1.874,5.125,16.51,16.51,0,0,1-3.839,3.6q-2.892,2.2-5.788,4.39a59.086,59.086,0,0,0-5.377,4.556c-2.23,2.146,1.167,5.537,3.394,3.394a52.44,52.44,0,0,1,4.791-4.1q2.784-2.111,5.565-4.221a25.077,25.077,0,0,0,4.545-4.058,15.551,15.551,0,0,0,2.882-5.96,84.628,84.628,0,0,0,1.949-12.893c.434-4.457.669-8.934.742-13.411.074-4.528-.541-9.208-3.019-13.109-1.652-2.6-5.807-.195-4.145,2.423Z"/><path class="a" d="M170.475,218.145a9.964,9.964,0,0,0,5.576-2.3,4.862,4.862,0,0,0,1.5-4.4,4.324,4.324,0,0,0-3.148-3.851,18.048,18.048,0,0,0-5.624-.217,76.964,76.964,0,0,0-8.918,1.33c2.377-1.96,4.344-4.177,4.692-6,.41-2.146-1.127-3.783-3.064-4.464a12.886,12.886,0,0,0-6.29-.344,197.469,197.469,0,0,0-19.288,4.245,14.784,14.784,0,0,0-5.785,2.8c-2,1.793-2.988,4.432-3.758,6.964-2.153,7.082-3.755,13.619-9.614,18.051,3.553,7.521,9.171,19.838,11.881,25.842,2.859-1.1,7.158-1.771,9.781-2.8a15.032,15.032,0,0,0,5.16-3.385c.958-.877,2.143-2.769,4.3-3.171a102.483,102.483,0,0,1,13.684-1.939c2.506-.123,5.535-.595,6.473-2.922a3.377,3.377,0,0,0-1.334-4.523,4.977,4.977,0,0,0-1.335-.53c-.735-.214-1.484-.379-2.234-.532-1.754-.358-3.523-.639-5.291-.916-1.274-.2-3.887-.74-5.163-.914-.44-.06-.417-.408-.222-.63l.06-.069c6.7-1.645,14.9-3.326,18.542-4.329,4.448-1.223,6.821-4.04,6.376-6.821C176.545,216.776,170.122,218.762,170.475,218.145Z"/><path class="d" d="M117.482,232.417a24.712,24.712,0,0,0,8.456-11.4c.854-2.15,1.519-4.37,2.184-6.584.691-2.305,1.272-4.818,2.757-6.771,1.437-1.892,3.753-2.619,5.937-3.267,1.92-.569,3.868-1.046,5.818-1.5,4.359-1.016,8.774-2.006,13.205-2.666,1.658-.247,5.276-.541,6.251,1.322.879,1.68-2.574,4.315-3.589,5.191-2.342,2.023,1.066,5.405,3.394,3.395,2.048-1.769,4.374-4.024,4.974-6.776a6.3,6.3,0,0,0-3.538-6.912c-4.863-2.455-10.992-.511-16.013.518-4.782.98-9.771,1.884-14.34,3.65a12.9,12.9,0,0,0-6.887,5.63,38.283,38.283,0,0,0-2.931,8.016c-1.592,5.246-3.469,10.665-8.1,14.012a2.47,2.47,0,0,0-.861,3.284,2.42,2.42,0,0,0,3.284.861Z"/><path class="d" d="M142.487,200.567q1.3-.75,2.653-1.417.675-.332,1.362-.641c.231-.1.464-.2.7-.307q.374-.159-.045.018l.356-.147a62.42,62.42,0,0,1,6.243-2.126,2.4,2.4,0,1,0-1.276-4.628,55.907,55.907,0,0,0-12.412,5.1,2.4,2.4,0,1,0,2.423,4.145Z"/><path class="d" d="M141.162,215.833a165.351,165.351,0,0,1,23.077-5.483,46.634,46.634,0,0,1,5.01-.6c1.693-.107,4.973-.7,5.765,1.332.829,2.127-.882,3.592-2.728,4.216a51.49,51.49,0,0,1-7.878,1.478,137.79,137.79,0,0,0-19.082,4.246c-2.93.939-1.678,5.575,1.276,4.629a136.635,136.635,0,0,1,18.862-4.209c5.438-.923,13.787-1.393,14.5-8.489a7.183,7.183,0,0,0-3.7-7.2c-2.622-1.257-5.886-.949-8.694-.663a116.082,116.082,0,0,0-13.928,2.5c-4.616,1.051-9.24,2.178-13.754,3.612-2.933.932-1.68,5.568,1.276,4.629Z"/><path class="d" d="M171.263,220.678c.343-.007.686-.014,1.028,0,.2.007.4.02.606.036.036,0,.381.052.105.009s.176.04.222.053c.6.17.622.113.922.326.349.248.5.288.687.775a3.66,3.66,0,0,1,.253,1.114,1.557,1.557,0,0,1-.233.951,5.586,5.586,0,0,1-2.559,2.216c-2.113,1.067-4.733,1.415-7.024,1.939-2.911.665-5.827,1.306-8.737,1.975-3.259.75-6.519,1.515-9.734,2.441-2.962.854-1.7,5.487,1.276,4.628,6.58-1.9,13.318-3.209,19.982-4.764,3.215-.751,6.47-1.481,9.043-3.691a7.445,7.445,0,0,0,1.877-9.231c-1.534-2.874-4.7-3.64-7.714-3.575-3.084.067-3.095,4.867,0,4.8Z"/><path class="d" d="M150.384,232.345a2.8,2.8,0,0,0,.35,3.445c.786.786,2.011.813,3.04,1,2.1.384,4.213.729,6.322,1.092,1.253.216,2.51.44,3.745.744.72.177,1.823.287,2.151,1.086.423,1.03-1.055,1.851-2.042,2.1-2.142.542-4.467.417-6.656.685-2.742.335-5.463.8-8.179,1.3a10.083,10.083,0,0,0-5.863,2.693,22.313,22.313,0,0,1-3.4,3.106c-3.914,2.557-8.977,2.575-13.207,4.461a2.416,2.416,0,0,0-.861,3.283,2.459,2.459,0,0,0,3.284.861c3.921-1.747,8.425-1.817,12.269-3.9a18.02,18.02,0,0,0,4.442-3.483,9.055,9.055,0,0,1,1.725-1.658,9.918,9.918,0,0,1,3.359-.819c2.762-.507,5.531-.989,8.329-1.249,2.268-.211,4.66-.123,6.835-.892a6.708,6.708,0,0,0,4.555-4.648,5.8,5.8,0,0,0-2.364-6.335,10.771,10.771,0,0,0-3.994-1.423c-1.582-.34-3.179-.6-4.776-.857q-1.606-.256-3.2-.554a19.754,19.754,0,0,1-3.173-.6l1.435,1.1-.1-.162.328,1.212.017-.192-.327,1.211.109-.184c1.581-2.662-2.567-5.079-4.145-2.422Z"/><path class="a" d="M112.475,227.678c-2.226,1.045-4.193,2.189-8.03,3.73l15.067,33.471c-.687,1.355,8-4.026,10.669-5.606-.517-1.256-11.05-24.472-15.058-32.717C114.137,226.927,113.289,227.3,112.475,227.678Z"/><path class="d" d="M120.65,267.315c3.807-1.408,7.269-3.909,10.742-5.97a2.42,2.42,0,0,0,1.1-2.71c-3.65-8.775-7.83-17.368-11.842-25.981-1.138-2.443-2.28-4.885-3.458-7.309a2.4,2.4,0,0,0-2.71-1.1c-3.508,1.338-6.755,3.235-10.222,4.667a2.478,2.478,0,0,0-1.676,2.952,2.414,2.414,0,0,0,2.952,1.676c3.462-1.43,6.726-3.333,10.222-4.667l-2.71-1.1c4.64,9.557,9,19.259,13.37,28.941q.559,1.239,1.116,2.481c.116.259.231.518.347.778s.422,1-.017-.056l1.1-2.711c-1.69,1-3.365,2.028-5.061,3.019-.926.542-1.855,1.078-2.8,1.589-.374.2-.749.4-1.13.593-.19.094-.381.185-.573.275-.462.218.4-.149-.034.01a2.466,2.466,0,0,0-1.676,2.953,2.419,2.419,0,0,0,2.952,1.676Z"/><path class="e" d="M48.755,307.889c30.277-12.334,48.366-22.264,72.813-38.444l-18.415-40.9c-18.1,8.16-39.634,19.343-56.725,26.979Z"/><path class="d" d="M47.639,257.591c14.914-6.673,29.47-14.118,44.214-21.153q6.228-2.971,12.512-5.826l-3.284-.861L119.5,270.656l.861-3.283c-10.286,6.8-20.747,13.35-31.584,19.246-11.108,6.043-22.577,11.391-34.228,16.3-2.709,1.14-5.44,2.225-8.111,3.448-.12.055-.241.106-.362.158.506-.217-.191.077-.239.1-.467.186-.935.37-1.406.547q-1.636.617-3.3,1.171c-2.319.782-4.662,1.506-7.035,2.1-.887.223-1.778.416-2.676.586-.1.019-.794.106-.153.033-.171.02-.342.039-.514.051a12.263,12.263,0,0,1-2.346-.054c-5.428-.675-9.8-4.788-12.4-9.37a54.3,54.3,0,0,1-5.958-17.116c-1.41-7.6-2.273-15.282-3.122-22.958-.9-8.11-1.595-16.237-1.982-24.388-.146-3.075-4.947-3.093-4.8,0A405.942,405.942,0,0,0,4.7,281.606a70.133,70.133,0,0,0,5.006,18.265c2.637,5.805,6.424,11.352,12.346,14.182a17.409,17.409,0,0,0,8.862,1.845,33.945,33.945,0,0,0,6.136-1.276,79.709,79.709,0,0,0,12.692-4.538c3.077-1.455,6.522-2.715,9.732-4.089q4.789-2.049,9.532-4.2,8.719-3.969,17.224-8.384a411.857,411.857,0,0,0,36.548-21.891,2.481,2.481,0,0,0,.861-3.283l-18.414-40.9c-.57-1.266-2.209-1.347-3.284-.861-15.072,6.8-29.809,14.319-44.738,21.424-3.977,1.893-7.968,3.756-11.988,5.555a2.417,2.417,0,0,0-.861,3.283,2.458,2.458,0,0,0,3.284.861Z"/><path class="d" d="M98.248,130.1c3.164,2.078,7.2,2.563,10.9,2.541,3.868-.023,7.99-.648,11.119-3.074a2.413,2.413,0,0,0,0-3.394,2.462,2.462,0,0,0-3.394,0c.694-.538.037-.052-.144.059-.23.142-.468.27-.71.39-.126.061-.254.119-.381.177-.3.135.556-.191-.021,0-.327.109-.648.231-.979.329a19.1,19.1,0,0,1-5.853.712,18.509,18.509,0,0,1-5.49-.683c-.346-.1-.684-.221-1.024-.341-.112-.039-.22-.086-.33-.13.6.24.087.033-.022-.023a13.687,13.687,0,0,1-1.247-.708,2.4,2.4,0,0,0-2.422,4.144Z"/><path class="d" d="M108.109,106.8a46.87,46.87,0,0,1,1.1,5.048l-.086-.638a3.011,3.011,0,0,1,.019.7l.086-.638a1.684,1.684,0,0,1-.077.313l.242-.573a1.193,1.193,0,0,1-.111.2l.376-.485a1.053,1.053,0,0,1-.165.162l.486-.375a3.25,3.25,0,0,1-.4.211l.573-.241a2.927,2.927,0,0,1-.674.2l.638-.086a2.62,2.62,0,0,1-.632,0l.638.086c-.239-.033-.473-.091-.712-.123a2.649,2.649,0,0,0-1.849.242,2.4,2.4,0,0,0-.861,3.283,2.3,2.3,0,0,0,1.434,1.1c.526.071,1.037.206,1.572.229a4.989,4.989,0,0,0,2.3-.543,3.271,3.271,0,0,0,1.826-2.161,5.5,5.5,0,0,0-.024-2.35c-.275-1.626-.651-3.238-1.069-4.833a2.4,2.4,0,1,0-4.629,1.276Z"/><path class="d" d="M82.425,90.494a6.983,6.983,0,0,0-1.489,4.056c-.125,3.026,1.054,7.135,5.2,7.563,6.843-.041,7.207-7.642,4.9-11.216A5.287,5.287,0,0,0,82.425,90.494Z"/><path class="d" d="M134.978,90.494a6.991,6.991,0,0,1,1.49,4.056c.124,3.026-1.055,7.135-5.2,7.563-6.844-.041-7.208-7.642-4.9-11.216A5.287,5.287,0,0,1,134.978,90.494Z"/></svg>